<svg width="336" height="184" viewBox="0 0 336 184" fill="none" xmlns="http://www.w3.org/2000/svg">
<path d="M11.2895 0L14.4879 6.8872L22.0264 7.80085L16.4647 12.971L17.9253 20.4229L11.2895 16.731L4.6537 20.4229L6.11428 12.971L0.552547 7.80085L8.09104 6.8872L11.2895 0Z" fill="#FFC633"/>
<path d="M40.3552 0L43.5537 6.8872L51.0922 7.80085L45.5304 12.971L46.991 20.4229L40.3552 16.731L33.7194 20.4229L35.18 12.971L29.6183 7.80085L37.1568 6.8872L40.3552 0Z" fill="#FFC633"/>
<path d="M69.421 0L72.6194 6.8872L80.1579 7.80085L74.5962 12.971L76.0568 20.4229L69.421 16.731L62.7852 20.4229L64.2458 12.971L58.684 7.80085L66.2225 6.8872L69.421 0Z" fill="#FFC633"/>
<path d="M98.4868 0L101.685 6.8872L109.224 7.80085L103.662 12.971L105.123 20.4229L98.4868 16.731L91.851 20.4229L93.3116 12.971L87.7498 7.80085L95.2883 6.8872L98.4868 0Z" fill="#FFC633"/>
<path d="M127.553 0L130.751 6.8872L138.289 7.80085L132.728 12.971L134.188 20.4229L127.553 16.731L120.917 20.4229L122.377 12.971L116.816 7.80085L124.354 6.8872L127.553 0Z" fill="#FFC633"/>
<path d="M0.4 52.9591V52.0991H2.86V52.9591C2.86 54.0791 3.48 54.9591 4.92 54.9591C6.36 54.9591 6.96 54.1391 6.96 52.8591V42.4591H9.52V52.9991C9.52 55.5791 7.72 57.3391 4.94 57.3391C1.94 57.3391 0.4 55.4791 0.4 52.9591ZM15.2352 57.3391C13.1352 57.3391 11.8552 56.1191 11.8552 54.2591C11.8552 52.4391 13.1752 51.2991 15.5152 51.1191L18.4752 50.8991V50.6791C18.4752 49.3391 17.6752 48.7991 16.4352 48.7991C14.9952 48.7991 14.1952 49.3991 14.1952 50.4391H12.1152C12.1152 48.2991 13.8752 46.8991 16.5552 46.8991C19.2152 46.8991 20.8552 48.3391 20.8552 51.0791V57.0791H18.7152L18.5352 55.6191C18.1152 56.6391 16.7752 57.3391 15.2352 57.3391ZM16.0352 55.4991C17.5352 55.4991 18.4952 54.5991 18.4952 53.0791V52.5591L16.4352 52.7191C14.9152 52.8591 14.3352 53.3591 14.3352 54.1591C14.3352 55.0591 14.9352 55.4991 16.0352 55.4991ZM25.6922 57.0791H23.2522V47.1991H25.4922L25.6922 48.3591C26.1922 47.5391 27.1922 46.8991 28.6122 46.8991C30.1122 46.8991 31.1522 47.6391 31.6722 48.7791C32.1722 47.6391 33.3322 46.8991 34.8322 46.8991C37.2322 46.8991 38.5522 48.3391 38.5522 50.6191V57.0791H36.1322V51.2591C36.1322 49.8391 35.3722 49.0991 34.2122 49.0991C33.0322 49.0991 32.1322 49.8591 32.1322 51.4791V57.0791H29.6922V51.2391C29.6922 49.8591 28.9522 49.1191 27.7922 49.1191C26.6322 49.1191 25.6922 49.8791 25.6922 51.4791V57.0791ZM45.3675 57.3391C42.4275 57.3391 40.3675 55.1991 40.3675 52.1391C40.3675 49.0391 42.3875 46.8991 45.2875 46.8991C48.2475 46.8991 50.1275 48.8791 50.1275 51.9591V52.6991L42.6875 52.7191C42.8675 54.4591 43.7875 55.3391 45.4075 55.3391C46.7475 55.3391 47.6275 54.8191 47.9075 53.8791H50.1675C49.7475 56.0391 47.9475 57.3391 45.3675 57.3391ZM45.3075 48.8991C43.8675 48.8991 42.9875 49.6791 42.7475 51.1591H47.7075C47.7075 49.7991 46.7675 48.8991 45.3075 48.8991ZM51.3203 54.0791H53.6403C53.6603 54.9391 54.3003 55.4791 55.4203 55.4791C56.5603 55.4791 57.1803 55.0191 57.1803 54.2991C57.1803 53.7991 56.9203 53.4391 56.0403 53.2391L54.2603 52.8191C52.4803 52.4191 51.6203 51.5791 51.6203 49.9991C51.6203 48.0591 53.2603 46.8991 55.5403 46.8991C57.7603 46.8991 59.2603 48.1791 59.2803 50.0991H56.9603C56.9403 49.2591 56.3803 48.7191 55.4403 48.7191C54.4803 48.7191 53.9203 49.1591 53.9203 49.8991C53.9203 50.4591 54.3603 50.8191 55.2003 51.0191L56.9803 51.4391C58.6403 51.8191 59.4803 52.5791 59.4803 54.0991C59.4803 56.0991 57.7803 57.3391 55.3403 57.3391C52.8803 57.3391 51.3203 56.0191 51.3203 54.0791ZM69.6488 42.4591V54.7191H75.7688V57.0791H67.0888V42.4591H69.6488ZM79.7359 57.3191C78.8559 57.3191 78.1159 56.5991 78.1159 55.7391C78.1159 54.8591 78.8559 54.1391 79.7359 54.1391C80.6159 54.1391 81.3559 54.8591 81.3559 55.7391C81.3559 56.5991 80.6159 57.3191 79.7359 57.3191Z" fill="black"/>
<path d="M99 39.8291C97.0716 39.8291 95.1866 40.4009 93.5832 41.4723C91.9798 42.5436 90.7301 44.0664 89.9922 45.8479C89.2542 47.6295 89.0611 49.5899 89.4373 51.4812C89.8136 53.3725 90.7422 55.1098 92.1057 56.4734C93.4693 57.837 95.2066 58.7656 97.0979 59.1418C98.9892 59.518 100.95 59.3249 102.731 58.5869C104.513 57.849 106.035 56.5993 107.107 54.9959C108.178 53.3925 108.75 51.5075 108.75 49.5791C108.747 46.9941 107.719 44.5157 105.891 42.6878C104.063 40.8599 101.585 39.8318 99 39.8291ZM103.281 47.8597L98.0306 53.1097C97.961 53.1795 97.8783 53.2348 97.7872 53.2725C97.6962 53.3103 97.5986 53.3297 97.5 53.3297C97.4014 53.3297 97.3038 53.3103 97.2128 53.2725C97.1218 53.2348 97.039 53.1795 96.9694 53.1097L94.7194 50.8597C94.5786 50.719 94.4996 50.5281 94.4996 50.3291C94.4996 50.1301 94.5786 49.9392 94.7194 49.7985C94.8601 49.6577 95.051 49.5787 95.25 49.5787C95.449 49.5787 95.6399 49.6577 95.7806 49.7985L97.5 51.5188L102.219 46.7985C102.289 46.7288 102.372 46.6735 102.463 46.6358C102.554 46.5981 102.651 46.5787 102.75 46.5787C102.849 46.5787 102.946 46.5981 103.037 46.6358C103.128 46.6735 103.211 46.7288 103.281 46.7985C103.35 46.8682 103.406 46.9509 103.443 47.0419C103.481 47.133 103.5 47.2306 103.5 47.3291C103.5 47.4276 103.481 47.5252 103.443 47.6163C103.406 47.7073 103.35 47.79 103.281 47.8597Z" fill="#01AB31"/>
<path d="M2.08 79.9071L1.776 83.0911H1.056L0.736 79.9071C0.672 79.3471 1.072 79.0911 1.424 79.0911C1.76 79.0911 2.144 79.3471 2.08 79.9071ZM4.336 79.9071L4.032 83.0911H3.312L2.992 79.9071C2.928 79.3471 3.328 79.0911 3.68 79.0911C4.016 79.0911 4.4 79.3471 4.336 79.9071ZM5.18888 90.5791H4.02088L8.22888 79.1231H9.65288L13.9089 90.5791H12.7089L11.5889 87.5391H6.30888L5.18888 90.5791ZM8.78888 80.7391L6.66088 86.5311H11.2209L9.07688 80.7391C9.02888 80.5791 8.94888 80.3871 8.93288 80.2751C8.91688 80.3711 8.85288 80.5791 8.78888 80.7391ZM14.6054 88.4031H15.6614C15.6614 89.2991 16.3334 89.8591 17.4214 89.8591C18.6214 89.8591 19.3254 89.3471 19.3254 88.5151C19.3254 87.8751 19.0054 87.5071 18.0934 87.2831L16.7654 86.9471C15.4214 86.6111 14.7654 85.9071 14.7654 84.8511C14.7654 83.4911 15.9014 82.6271 17.5654 82.6271C19.1974 82.6271 20.2534 83.5231 20.3014 84.9631H19.2294C19.1974 84.0671 18.5734 83.5391 17.5334 83.5391C16.4454 83.5391 15.8374 84.0031 15.8374 84.8351C15.8374 85.4271 16.2534 85.8431 17.1014 86.0511L18.4294 86.3871C19.7734 86.7231 20.3814 87.3471 20.3814 88.4671C20.3814 89.8591 19.1974 90.7711 17.4374 90.7711C15.6934 90.7711 14.6054 89.8431 14.6054 88.4031ZM25.9804 88.4031H27.0364C27.0364 89.2991 27.7084 89.8591 28.7964 89.8591C29.9964 89.8591 30.7004 89.3471 30.7004 88.5151C30.7004 87.8751 30.3804 87.5071 29.4684 87.2831L28.1404 86.9471C26.7964 86.6111 26.1404 85.9071 26.1404 84.8511C26.1404 83.4911 27.2764 82.6271 28.9404 82.6271C30.5724 82.6271 31.6284 83.5231 31.6764 84.9631H30.6044C30.5724 84.0671 29.9484 83.5391 28.9084 83.5391C27.8204 83.5391 27.2124 84.0031 27.2124 84.8351C27.2124 85.4271 27.6284 85.8431 28.4764 86.0511L29.8044 86.3871C31.1484 86.7231 31.7564 87.3471 31.7564 88.4671C31.7564 89.8591 30.5724 90.7711 28.8124 90.7711C27.0684 90.7711 25.9804 89.8431 25.9804 88.4031ZM33.0299 86.7071C33.0299 84.3391 34.6939 82.6271 36.9659 82.6271C39.2379 82.6271 40.9019 84.3391 40.9019 86.7071C40.9019 89.0591 39.2379 90.7711 36.9659 90.7711C34.6939 90.7711 33.0299 89.0591 33.0299 86.7071ZM34.1499 86.6911C34.1499 88.5151 35.3019 89.7791 36.9659 89.7791C38.6139 89.7791 39.7819 88.5151 39.7819 86.6911C39.7819 84.8991 38.6139 83.6191 36.9659 83.6191C35.3019 83.6191 34.1499 84.8991 34.1499 86.6911ZM43.7716 90.5791H42.6676V82.8351H43.6276L43.7556 83.9391C44.1396 83.1231 45.0036 82.6271 46.0916 82.6271C47.3076 82.6271 48.2196 83.2671 48.5876 84.2751C48.9396 83.2671 49.8836 82.6271 51.1316 82.6271C52.8116 82.6271 53.9156 83.7151 53.9156 85.5071V90.5791H52.8436V85.7311C52.8436 84.4031 52.1076 83.6191 50.9236 83.6191C49.6276 83.6191 48.8596 84.5951 48.8596 85.7951V90.5791H47.7716V85.7151C47.7716 84.4031 47.0196 83.6351 45.8516 83.6351C44.5556 83.6351 43.7716 84.5951 43.7716 85.7791V90.5791ZM59.3844 90.7711C57.1124 90.7711 55.5924 89.1391 55.5924 86.7071C55.5924 84.2911 57.0964 82.6271 59.3044 82.6271C61.4004 82.6271 62.8244 84.1151 62.8244 86.3071V86.8511H56.6644C56.7444 88.7391 57.7364 89.8271 59.4004 89.8271C60.6644 89.8271 61.4804 89.2831 61.7684 88.2591H62.8244C62.4084 89.8911 61.2084 90.7711 59.3844 90.7711ZM59.3044 83.5711C57.8484 83.5711 56.8884 84.5311 56.6964 86.0511H61.7204C61.7204 84.5631 60.7604 83.5711 59.3044 83.5711ZM64.0455 86.7071C64.0455 84.3391 65.7095 82.6271 67.9815 82.6271C70.2535 82.6271 71.9175 84.3391 71.9175 86.7071C71.9175 89.0591 70.2535 90.7711 67.9815 90.7711C65.7095 90.7711 64.0455 89.0591 64.0455 86.7071ZM65.1655 86.6911C65.1655 88.5151 66.3175 89.7791 67.9815 89.7791C69.6295 89.7791 70.7975 88.5151 70.7975 86.6911C70.7975 84.8991 69.6295 83.6191 67.9815 83.6191C66.3175 83.6191 65.1655 84.8991 65.1655 86.6911ZM74.7873 90.5791H73.6833V82.8351H74.6432L74.8033 84.1791C75.3153 83.1871 76.3393 82.6271 77.4593 82.6271C79.5873 82.6271 80.4673 83.8911 80.4673 85.8431V90.5791H79.3633V86.0831C79.3633 84.2751 78.5473 83.6351 77.2673 83.6351C75.6833 83.6351 74.7873 84.7871 74.7873 86.5311V90.5791ZM85.9156 90.7711C83.6436 90.7711 82.1236 89.1391 82.1236 86.7071C82.1236 84.2911 83.6276 82.6271 85.8356 82.6271C87.9316 82.6271 89.3556 84.1151 89.3556 86.3071V86.8511H83.1956C83.2756 88.7391 84.2676 89.8271 85.9316 89.8271C87.1956 89.8271 88.0116 89.2831 88.2996 88.2591H89.3556C88.9396 89.8911 87.7396 90.7711 85.9156 90.7711ZM85.8356 83.5711C84.3796 83.5711 83.4196 84.5311 83.2276 86.0511H88.2516C88.2516 84.5631 87.2916 83.5711 85.8356 83.5711ZM97.1903 90.5791L94.6303 82.8351H95.7663L97.2863 87.5071C97.4623 88.0191 97.6063 88.5471 97.7663 89.1711C97.8943 88.5471 98.1503 87.7631 98.2303 87.5071L99.7663 82.8351H100.902L102.422 87.5071C102.566 87.9231 102.758 88.5951 102.902 89.1711C103.062 88.5311 103.094 88.3391 103.366 87.5071L104.902 82.8351H106.054L103.43 90.5791H102.358L100.758 85.7151C100.566 85.1391 100.438 84.6591 100.342 84.1951C100.23 84.6111 100.102 85.0751 99.8943 85.7151L98.2943 90.5791H97.1903ZM108.537 90.5631H107.433V78.9151H108.537V84.1791C109.033 83.2511 109.977 82.6271 111.273 82.6271C113.305 82.6271 114.217 83.8911 114.217 85.8431V90.5791H113.113V86.0831C113.113 84.2751 112.265 83.6351 111.065 83.6351C109.401 83.6351 108.537 84.8671 108.537 86.3551V90.5631ZM115.874 86.7071C115.874 84.3391 117.538 82.6271 119.81 82.6271C122.082 82.6271 123.746 84.3391 123.746 86.7071C123.746 89.0591 122.082 90.7711 119.81 90.7711C117.538 90.7711 115.874 89.0591 115.874 86.7071ZM116.994 86.6911C116.994 88.5151 118.146 89.7791 119.81 89.7791C121.458 89.7791 122.626 88.5151 122.626 86.6911C122.626 84.8991 121.458 83.6191 119.81 83.6191C118.146 83.6191 116.994 84.8991 116.994 86.6911ZM126.127 79.9071L125.823 83.0911H125.103L124.783 79.9071C124.719 79.3471 125.119 79.0911 125.471 79.0911C125.807 79.0911 126.191 79.3471 126.127 79.9071ZM127.043 88.4031H128.099C128.099 89.2991 128.771 89.8591 129.859 89.8591C131.059 89.8591 131.763 89.3471 131.763 88.5151C131.763 87.8751 131.443 87.5071 130.531 87.2831L129.203 86.9471C127.859 86.6111 127.203 85.9071 127.203 84.8511C127.203 83.4911 128.339 82.6271 130.003 82.6271C131.635 82.6271 132.691 83.5231 132.739 84.9631H131.667C131.635 84.0671 131.011 83.5391 129.971 83.5391C128.883 83.5391 128.275 84.0031 128.275 84.8351C128.275 85.4271 128.691 85.8431 129.539 86.0511L130.867 86.3871C132.211 86.7231 132.819 87.3471 132.819 88.4671C132.819 89.8591 131.635 90.7711 129.875 90.7711C128.131 90.7711 127.043 89.8431 127.043 88.4031ZM141.298 90.7711C139.65 90.7711 138.674 89.8431 138.674 88.4831C138.674 87.0591 139.762 86.1631 141.57 86.0191L144.13 85.8111V85.5551C144.13 84.0351 143.218 83.5551 142.082 83.5551C140.738 83.5551 139.938 84.1631 139.938 85.2031H138.93C138.93 83.6351 140.21 82.6271 142.114 82.6271C143.906 82.6271 145.218 83.5231 145.218 85.5711V90.5791H144.29L144.146 89.2191C143.666 90.1951 142.61 90.7711 141.298 90.7711ZM141.554 89.8751C143.186 89.8751 144.13 88.7391 144.13 87.0591V86.6431L141.842 86.8191C140.386 86.9471 139.794 87.5871 139.794 88.4511C139.794 89.3951 140.498 89.8751 141.554 89.8751ZM148.585 90.5791H147.481V78.9151H148.585V90.5791ZM152.565 90.5791L150.005 82.8351H151.141L152.661 87.5071C152.837 88.0191 152.981 88.5471 153.141 89.1711C153.269 88.5471 153.525 87.7631 153.605 87.5071L155.141 82.8351H156.277L157.797 87.5071C157.941 87.9231 158.133 88.5951 158.277 89.1711C158.437 88.5311 158.469 88.3391 158.741 87.5071L160.277 82.8351H161.429L158.805 90.5791H157.733L156.133 85.7151C155.941 85.1391 155.813 84.6591 155.717 84.1951C155.605 84.6111 155.477 85.0751 155.269 85.7151L153.669 90.5791H152.565ZM164.689 90.7711C163.041 90.7711 162.065 89.8431 162.065 88.4831C162.065 87.0591 163.153 86.1631 164.961 86.0191L167.521 85.8111V85.5551C167.521 84.0351 166.609 83.5551 165.473 83.5551C164.129 83.5551 163.329 84.1631 163.329 85.2031H162.321C162.321 83.6351 163.601 82.6271 165.505 82.6271C167.297 82.6271 168.609 83.5231 168.609 85.5711V90.5791H167.681L167.537 89.2191C167.057 90.1951 166.001 90.7711 164.689 90.7711ZM164.945 89.8751C166.577 89.8751 167.521 88.7391 167.521 87.0591V86.6431L165.233 86.8191C163.777 86.9471 163.185 87.5871 163.185 88.4511C163.185 89.3951 163.889 89.8751 164.945 89.8751ZM169.868 93.9551V93.0431H170.716C171.388 93.0431 172.06 92.9951 172.444 91.9551L172.78 91.0431L169.644 82.8351H170.812L173.308 89.5871L175.756 82.8351H176.892L173.34 92.3551C172.892 93.5711 172.14 94.0671 171.036 94.0671C170.572 94.0671 170.22 94.0351 169.868 93.9551ZM177.48 88.4031H178.536C178.536 89.2991 179.208 89.8591 180.296 89.8591C181.496 89.8591 182.2 89.3471 182.2 88.5151C182.2 87.8751 181.88 87.5071 180.968 87.2831L179.64 86.9471C178.296 86.6111 177.64 85.9071 177.64 84.8511C177.64 83.4911 178.776 82.6271 180.44 82.6271C182.072 82.6271 183.128 83.5231 183.176 84.9631H182.104C182.072 84.0671 181.448 83.5391 180.408 83.5391C179.32 83.5391 178.712 84.0031 178.712 84.8351C178.712 85.4271 179.128 85.8431 179.976 86.0511L181.304 86.3871C182.648 86.7231 183.256 87.3471 183.256 88.4671C183.256 89.8591 182.072 90.7711 180.312 90.7711C178.568 90.7711 177.48 89.8431 177.48 88.4031ZM188.967 86.7071C188.967 84.3391 190.631 82.6271 192.903 82.6271C195.175 82.6271 196.839 84.3391 196.839 86.7071C196.839 89.0591 195.175 90.7711 192.903 90.7711C190.631 90.7711 188.967 89.0591 188.967 86.7071ZM190.087 86.6911C190.087 88.5151 191.239 89.7791 192.903 89.7791C194.551 89.7791 195.719 88.5151 195.719 86.6911C195.719 84.8991 194.551 83.6191 192.903 83.6191C191.239 83.6191 190.087 84.8991 190.087 86.6911ZM199.709 90.5791H198.605V82.8351H199.565L199.725 84.1791C200.237 83.1871 201.261 82.6271 202.381 82.6271C204.509 82.6271 205.389 83.8911 205.389 85.8431V90.5791H204.285V86.0831C204.285 84.2751 203.469 83.6351 202.189 83.6351C200.605 83.6351 199.709 84.7871 199.709 86.5311V90.5791ZM213.803 90.5791H212.715V83.7631H211.163V82.8351H212.715V80.3871H213.803V82.8351H215.355V83.7631H213.803V90.5791ZM217.897 90.5631H216.793V78.9151H217.897V84.1791C218.393 83.2511 219.337 82.6271 220.633 82.6271C222.665 82.6271 223.577 83.8911 223.577 85.8431V90.5791H222.473V86.0831C222.473 84.2751 221.625 83.6351 220.425 83.6351C218.761 83.6351 217.897 84.8671 217.897 86.3551V90.5631ZM229.025 90.7711C226.753 90.7711 225.233 89.1391 225.233 86.7071C225.233 84.2911 226.737 82.6271 228.945 82.6271C231.041 82.6271 232.465 84.1151 232.465 86.3071V86.8511H226.305C226.385 88.7391 227.377 89.8271 229.041 89.8271C230.305 89.8271 231.121 89.2831 231.409 88.2591H232.465C232.049 89.8911 230.849 90.7711 229.025 90.7711ZM228.945 83.5711C227.489 83.5711 226.529 84.5311 226.337 86.0511H231.361C231.361 84.5631 230.401 83.5711 228.945 83.5711ZM239.82 90.5791H238.716V78.9151H239.82V90.5791ZM241.624 86.7071C241.624 84.3391 243.288 82.6271 245.56 82.6271C247.832 82.6271 249.496 84.3391 249.496 86.7071C249.496 89.0591 247.832 90.7711 245.56 90.7711C243.288 90.7711 241.624 89.0591 241.624 86.7071ZM242.744 86.6911C242.744 88.5151 243.896 89.7791 245.56 89.7791C247.208 89.7791 248.376 88.5151 248.376 86.6911C248.376 84.8991 247.208 83.6191 245.56 83.6191C243.896 83.6191 242.744 84.8991 242.744 86.6911ZM250.717 86.7071C250.717 84.3391 252.381 82.6271 254.653 82.6271C256.925 82.6271 258.589 84.3391 258.589 86.7071C258.589 89.0591 256.925 90.7711 254.653 90.7711C252.381 90.7711 250.717 89.0591 250.717 86.7071ZM251.837 86.6911C251.837 88.5151 252.989 89.7791 254.653 89.7791C256.301 89.7791 257.469 88.5151 257.469 86.6911C257.469 84.8991 256.301 83.6191 254.653 83.6191C252.989 83.6191 251.837 84.8991 251.837 86.6911ZM261.507 90.5791H260.403V78.9151H261.507V86.8351L265.347 82.8351H266.739L263.763 85.9231L266.755 90.5791H265.475L263.011 86.7071L261.507 88.2591V90.5791ZM267.264 86.7071C267.264 84.3391 268.928 82.6271 271.2 82.6271C273.472 82.6271 275.136 84.3391 275.136 86.7071C275.136 89.0591 273.472 90.7711 271.2 90.7711C268.928 90.7711 267.264 89.0591 267.264 86.7071ZM268.384 86.6911C268.384 88.5151 269.536 89.7791 271.2 89.7791C272.848 89.7791 274.016 88.5151 274.016 86.6911C274.016 84.8991 272.848 83.6191 271.2 83.6191C269.536 83.6191 268.384 84.8991 268.384 86.6911ZM282.155 82.8351H283.259V90.5791H282.299L282.155 89.2671C281.723 90.1631 280.651 90.7711 279.435 90.7711C277.611 90.7711 276.618 89.5231 276.618 87.6351V82.8191H277.739V87.2831C277.739 89.1231 278.555 89.7791 279.786 89.7791C281.275 89.7791 282.155 88.7871 282.155 86.9471V82.8351ZM287.334 90.5791H286.246V83.7631H284.694V82.8351H286.246V80.3871H287.334V82.8351H288.886V83.7631H287.334V90.5791ZM293.897 82.8351H295.081V81.3311C295.081 79.5871 296.041 78.9151 297.225 78.9151C297.497 78.9151 297.817 78.9311 298.073 78.9791V79.9231H297.417C296.441 79.9231 296.185 80.4191 296.185 81.3311V82.8351H298.009V83.7631H296.185V90.5791H295.081V83.7631H293.897V82.8351ZM298.733 86.7071C298.733 84.3391 300.397 82.6271 302.669 82.6271C304.941 82.6271 306.605 84.3391 306.605 86.7071C306.605 89.0591 304.941 90.7711 302.669 90.7711C300.397 90.7711 298.733 89.0591 298.733 86.7071ZM299.853 86.6911C299.853 88.5151 301.005 89.7791 302.669 89.7791C304.317 89.7791 305.485 88.5151 305.485 86.6911C305.485 84.8991 304.317 83.6191 302.669 83.6191C301.005 83.6191 299.853 84.8991 299.853 86.6911ZM312.419 82.7391V83.7311H311.811C310.387 83.7311 309.475 84.6911 309.475 86.1631V90.5791H308.371V82.8351H309.411L309.491 84.0351C309.795 83.2031 310.611 82.6591 311.699 82.6591C311.939 82.6591 312.147 82.6751 312.419 82.7391ZM6.592 104.835H7.696V112.579H6.736L6.592 111.267C6.16 112.163 5.088 112.771 3.872 112.771C2.048 112.771 1.056 111.523 1.056 109.635V104.819H2.176V109.283C2.176 111.123 2.992 111.779 4.224 111.779C5.712 111.779 6.592 110.787 6.592 108.947V104.835ZM11.0998 112.579H9.99575V104.835H10.9557L11.1158 106.179C11.6278 105.187 12.6518 104.627 13.7718 104.627C15.8998 104.627 16.7798 105.891 16.7798 107.843V112.579H15.6758V108.083C15.6758 106.275 14.8598 105.635 13.5798 105.635C11.9958 105.635 11.0998 106.787 11.0998 108.531V112.579ZM19.5241 102.707C19.0761 102.707 18.7081 102.339 18.7081 101.891C18.7081 101.443 19.0761 101.059 19.5241 101.059C19.9721 101.059 20.3561 101.443 20.3561 101.891C20.3561 102.339 19.9721 102.707 19.5241 102.707ZM18.9801 112.579V104.835H20.0841V112.579H18.9801ZM21.8424 108.675C21.8424 106.339 23.1864 104.627 25.4264 104.627C26.7224 104.627 27.7944 105.203 28.3544 106.403L28.4664 104.835H29.4264V115.955H28.3224V111.091C27.7784 112.211 26.7384 112.771 25.4264 112.771C23.1384 112.771 21.8424 111.011 21.8424 108.675ZM22.9624 108.707C22.9624 110.483 23.9384 111.779 25.6184 111.779C27.3144 111.779 28.3064 110.483 28.3064 108.707C28.3064 106.915 27.3144 105.635 25.6184 105.635C23.9384 105.635 22.9624 106.915 22.9624 108.707ZM37.1701 104.835H38.2741V112.579H37.3141L37.1701 111.267C36.7381 112.163 35.6661 112.771 34.4501 112.771C32.6261 112.771 31.6341 111.523 31.6341 109.635V104.819H32.7541V109.283C32.7541 111.123 33.5701 111.779 34.8021 111.779C36.2901 111.779 37.1701 110.787 37.1701 108.947V104.835ZM43.6656 112.771C41.3936 112.771 39.8736 111.139 39.8736 108.707C39.8736 106.291 41.3776 104.627 43.5856 104.627C45.6816 104.627 47.1056 106.115 47.1056 108.307V108.851H40.9456C41.0256 110.739 42.0176 111.827 43.6816 111.827C44.9456 111.827 45.7616 111.283 46.0496 110.259H47.1056C46.6896 111.891 45.4896 112.771 43.6656 112.771ZM43.5856 105.571C42.1296 105.571 41.1696 106.531 40.9776 108.051H46.0016C46.0016 106.563 45.0416 105.571 43.5856 105.571ZM52.4443 104.835H53.6283V103.331C53.6283 101.587 54.5883 100.915 55.7723 100.915C56.0443 100.915 56.3643 100.931 56.6203 100.979V101.923H55.9643C54.9883 101.923 54.7323 102.419 54.7323 103.331V104.835H56.5563V105.763H54.7323V112.579H53.6283V105.763H52.4443V104.835ZM60.001 112.771C58.353 112.771 57.377 111.843 57.377 110.483C57.377 109.059 58.465 108.163 60.273 108.019L62.833 107.811V107.555C62.833 106.035 61.921 105.555 60.785 105.555C59.441 105.555 58.641 106.163 58.641 107.203H57.633C57.633 105.635 58.913 104.627 60.817 104.627C62.609 104.627 63.921 105.523 63.921 107.571V112.579H62.993L62.849 111.219C62.369 112.195 61.313 112.771 60.001 112.771ZM60.257 111.875C61.889 111.875 62.833 110.739 62.833 109.059V108.643L60.545 108.819C59.089 108.947 58.497 109.587 58.497 110.451C58.497 111.395 59.201 111.875 60.257 111.875ZM65.4804 110.403H66.5364C66.5364 111.299 67.2084 111.859 68.2964 111.859C69.4964 111.859 70.2004 111.347 70.2004 110.515C70.2004 109.875 69.8804 109.507 68.9684 109.283L67.6404 108.947C66.2964 108.611 65.6404 107.907 65.6404 106.851C65.6404 105.491 66.7764 104.627 68.4404 104.627C70.0724 104.627 71.1284 105.523 71.1764 106.963H70.1044C70.0724 106.067 69.4484 105.539 68.4084 105.539C67.3204 105.539 66.7124 106.003 66.7124 106.835C66.7124 107.427 67.1284 107.843 67.9764 108.051L69.3044 108.387C70.6484 108.723 71.2564 109.347 71.2564 110.467C71.2564 111.859 70.0724 112.771 68.3124 112.771C66.5684 112.771 65.4804 111.843 65.4804 110.403ZM74.1779 112.563H73.0739V100.915H74.1779V106.179C74.6739 105.251 75.6179 104.627 76.9139 104.627C78.9459 104.627 79.8579 105.891 79.8579 107.843V112.579H78.7539V108.083C78.7539 106.275 77.9059 105.635 76.7059 105.635C75.0419 105.635 74.1779 106.867 74.1779 108.355V112.563ZM82.6023 102.707C82.1543 102.707 81.7863 102.339 81.7863 101.891C81.7863 101.443 82.1543 101.059 82.6023 101.059C83.0503 101.059 83.4343 101.443 83.4343 101.891C83.4343 102.339 83.0503 102.707 82.6023 102.707ZM82.0583 112.579V104.835H83.1623V112.579H82.0583ZM84.9205 108.707C84.9205 106.339 86.5845 104.627 88.8565 104.627C91.1285 104.627 92.7925 106.339 92.7925 108.707C92.7925 111.059 91.1285 112.771 88.8565 112.771C86.5845 112.771 84.9205 111.059 84.9205 108.707ZM86.0405 108.691C86.0405 110.515 87.1925 111.779 88.8565 111.779C90.5045 111.779 91.6725 110.515 91.6725 108.691C91.6725 106.899 90.5045 105.619 88.8565 105.619C87.1925 105.619 86.0405 106.899 86.0405 108.691ZM95.6623 112.579H94.5583V104.835H95.5182L95.6783 106.179C96.1903 105.187 97.2143 104.627 98.3343 104.627C100.462 104.627 101.342 105.891 101.342 107.843V112.579H100.238V108.083C100.238 106.275 99.4223 105.635 98.1423 105.635C96.5583 105.635 95.6623 106.787 95.6623 108.531V112.579ZM107.98 115.955V104.835H108.94L109.052 106.403C109.596 105.203 110.684 104.627 111.98 104.627C114.22 104.627 115.564 106.339 115.564 108.675C115.564 111.011 114.268 112.771 111.98 112.771C110.668 112.771 109.628 112.211 109.084 111.091V115.955H107.98ZM109.1 108.707C109.1 110.483 110.092 111.779 111.788 111.779C113.468 111.779 114.444 110.483 114.444 108.707C114.444 106.915 113.468 105.635 111.788 105.635C110.092 105.635 109.1 106.915 109.1 108.707ZM117.868 102.707C117.42 102.707 117.052 102.339 117.052 101.891C117.052 101.443 117.42 101.059 117.868 101.059C118.316 101.059 118.7 101.443 118.7 101.891C118.7 102.339 118.316 102.707 117.868 102.707ZM117.324 112.579V104.835H118.428V112.579H117.324ZM123.978 112.771C121.706 112.771 120.186 111.139 120.186 108.707C120.186 106.291 121.69 104.627 123.898 104.627C125.994 104.627 127.418 106.115 127.418 108.307V108.851H121.258C121.338 110.739 122.33 111.827 123.994 111.827C125.258 111.827 126.074 111.283 126.362 110.259H127.418C127.002 111.891 125.802 112.771 123.978 112.771ZM123.898 105.571C122.442 105.571 121.482 106.531 121.29 108.051H126.314C126.314 106.563 125.354 105.571 123.898 105.571ZM128.639 108.723C128.639 106.291 130.127 104.627 132.383 104.627C134.175 104.627 135.487 105.667 135.791 107.267H134.687C134.399 106.195 133.471 105.603 132.399 105.603C130.831 105.603 129.727 106.803 129.727 108.707C129.727 110.547 130.751 111.779 132.319 111.779C133.471 111.779 134.399 111.139 134.703 110.147H135.823C135.455 111.731 134.079 112.771 132.319 112.771C130.127 112.771 128.639 111.155 128.639 108.723ZM140.744 112.771C138.472 112.771 136.952 111.139 136.952 108.707C136.952 106.291 138.456 104.627 140.664 104.627C142.76 104.627 144.184 106.115 144.184 108.307V108.851H138.024C138.104 110.739 139.096 111.827 140.76 111.827C142.024 111.827 142.84 111.283 143.128 110.259H144.184C143.768 111.891 142.568 112.771 140.744 112.771ZM140.664 105.571C139.208 105.571 138.248 106.531 138.056 108.051H143.08C143.08 106.563 142.12 105.571 140.664 105.571ZM145.293 110.403H146.349C146.349 111.299 147.021 111.859 148.109 111.859C149.309 111.859 150.013 111.347 150.013 110.515C150.013 109.875 149.693 109.507 148.781 109.283L147.453 108.947C146.109 108.611 145.453 107.907 145.453 106.851C145.453 105.491 146.589 104.627 148.253 104.627C149.885 104.627 150.941 105.523 150.989 106.963H149.917C149.885 106.067 149.261 105.539 148.221 105.539C147.133 105.539 146.525 106.003 146.525 106.835C146.525 107.427 146.941 107.843 147.789 108.051L149.117 108.387C150.461 108.723 151.069 109.347 151.069 110.467C151.069 111.859 149.885 112.771 148.125 112.771C146.381 112.771 145.293 111.843 145.293 110.403ZM154.713 112.035C154.713 113.027 153.945 113.891 152.953 114.035V113.443C153.529 113.347 153.945 112.931 153.945 112.483C153.849 112.547 153.721 112.595 153.529 112.595C153.081 112.595 152.697 112.275 152.697 111.731C152.697 111.171 153.081 110.771 153.641 110.771C154.217 110.771 154.713 111.235 154.713 112.035ZM162.778 101.123V112.579H161.626V101.123H162.778ZM166.252 101.907L165.948 105.091H165.228L164.908 101.907C164.844 101.347 165.244 101.091 165.596 101.091C165.932 101.091 166.316 101.347 166.252 101.907ZM169.24 112.579H168.136V104.835H169.096L169.224 105.939C169.608 105.123 170.472 104.627 171.56 104.627C172.776 104.627 173.688 105.267 174.056 106.275C174.408 105.267 175.352 104.627 176.6 104.627C178.28 104.627 179.384 105.715 179.384 107.507V112.579H178.312V107.731C178.312 106.403 177.576 105.619 176.392 105.619C175.096 105.619 174.328 106.595 174.328 107.795V112.579H173.24V107.715C173.24 106.403 172.488 105.635 171.32 105.635C170.024 105.635 169.24 106.595 169.24 107.779V112.579ZM187.819 112.579H186.731V105.763H185.179V104.835H186.731V102.387H187.819V104.835H189.371V105.763H187.819V112.579ZM191.912 112.563H190.808V100.915H191.912V106.179C192.408 105.251 193.352 104.627 194.648 104.627C196.68 104.627 197.592 105.891 197.592 107.843V112.579H196.488V108.083C196.488 106.275 195.64 105.635 194.44 105.635C192.776 105.635 191.912 106.867 191.912 108.355V112.563ZM203.841 104.739V105.731H203.233C201.809 105.731 200.897 106.691 200.897 108.163V112.579H199.793V104.835H200.833L200.913 106.035C201.217 105.203 202.033 104.659 203.121 104.659C203.361 104.659 203.569 104.675 203.841 104.739ZM205.852 102.707C205.404 102.707 205.036 102.339 205.036 101.891C205.036 101.443 205.404 101.059 205.852 101.059C206.3 101.059 206.684 101.443 206.684 101.891C206.684 102.339 206.3 102.707 205.852 102.707ZM205.308 112.579V104.835H206.412V112.579H205.308ZM209.867 112.579H208.763V100.915H209.867V112.579ZM213.367 112.579H212.263V100.915H213.367V112.579ZM218.963 112.771C216.691 112.771 215.171 111.139 215.171 108.707C215.171 106.291 216.674 104.627 218.883 104.627C220.979 104.627 222.403 106.115 222.403 108.307V108.851H216.243C216.323 110.739 217.315 111.827 218.979 111.827C220.243 111.827 221.059 111.283 221.347 110.259H222.403C221.987 111.891 220.787 112.771 218.963 112.771ZM218.883 105.571C217.427 105.571 216.467 106.531 216.275 108.051H221.299C221.299 106.563 220.339 105.571 218.883 105.571ZM227.208 112.771C224.952 112.771 223.624 111.043 223.624 108.723C223.624 106.387 224.952 104.627 227.256 104.627C228.536 104.627 229.56 105.187 230.104 106.307V100.915H231.208V112.579H230.248L230.136 110.995C229.592 112.195 228.504 112.771 227.208 112.771ZM227.4 111.763C229.096 111.763 230.088 110.483 230.088 108.691C230.088 106.915 229.096 105.619 227.4 105.619C225.72 105.619 224.744 106.915 224.744 108.691C224.744 110.483 225.72 111.763 227.4 111.763ZM239.725 112.579H238.637V105.763H237.085V104.835H238.637V102.387H239.725V104.835H241.277V105.763H239.725V112.579ZM242.092 108.707C242.092 106.339 243.756 104.627 246.028 104.627C248.3 104.627 249.964 106.339 249.964 108.707C249.964 111.059 248.3 112.771 246.028 112.771C243.756 112.771 242.092 111.059 242.092 108.707ZM243.212 108.691C243.212 110.515 244.364 111.779 246.028 111.779C247.676 111.779 248.844 110.515 248.844 108.691C248.844 106.899 247.676 105.619 246.028 105.619C244.364 105.619 243.212 106.899 243.212 108.691ZM257.272 112.563H256.168V100.915H257.272V106.179C257.768 105.251 258.712 104.627 260.008 104.627C262.04 104.627 262.952 105.891 262.952 107.843V112.579H261.848V108.083C261.848 106.275 261 105.635 259.8 105.635C258.136 105.635 257.272 106.867 257.272 108.355V112.563ZM267.376 112.771C265.728 112.771 264.752 111.843 264.752 110.483C264.752 109.059 265.84 108.163 267.648 108.019L270.208 107.811V107.555C270.208 106.035 269.296 105.555 268.16 105.555C266.816 105.555 266.016 106.163 266.016 107.203H265.008C265.008 105.635 266.288 104.627 268.192 104.627C269.984 104.627 271.296 105.523 271.296 107.571V112.579H270.368L270.224 111.219C269.744 112.195 268.688 112.771 267.376 112.771ZM267.632 111.875C269.264 111.875 270.208 110.739 270.208 109.059V108.643L267.92 108.819C266.464 108.947 265.872 109.587 265.872 110.451C265.872 111.395 266.576 111.875 267.632 111.875ZM275.359 112.579L272.191 104.835H273.375L275.375 109.827C275.583 110.387 275.791 110.915 275.935 111.427C276.079 110.899 276.287 110.387 276.511 109.827L278.543 104.835H279.679L276.463 112.579H275.359ZM283.884 112.771C281.612 112.771 280.092 111.139 280.092 108.707C280.092 106.291 281.596 104.627 283.804 104.627C285.9 104.627 287.324 106.115 287.324 108.307V108.851H281.164C281.244 110.739 282.236 111.827 283.9 111.827C285.164 111.827 285.98 111.283 286.268 110.259H287.324C286.908 111.891 285.708 112.771 283.884 112.771ZM283.804 105.571C282.348 105.571 281.388 106.531 281.196 108.051H286.22C286.22 106.563 285.26 105.571 283.804 105.571ZM0.496 132.403H1.552C1.552 133.299 2.224 133.859 3.312 133.859C4.512 133.859 5.216 133.347 5.216 132.515C5.216 131.875 4.896 131.507 3.984 131.283L2.656 130.947C1.312 130.611 0.656 129.907 0.656 128.851C0.656 127.491 1.792 126.627 3.456 126.627C5.088 126.627 6.144 127.523 6.192 128.963H5.12C5.088 128.067 4.464 127.539 3.424 127.539C2.336 127.539 1.728 128.003 1.728 128.835C1.728 129.427 2.144 129.843 2.992 130.051L4.32 130.387C5.664 130.723 6.272 131.347 6.272 132.467C6.272 133.859 5.088 134.771 3.328 134.771C1.584 134.771 0.496 133.843 0.496 132.403ZM9.8655 134.579H8.7775V127.763H7.2255V126.835H8.7775V124.387H9.8655V126.835H11.4175V127.763H9.8655V134.579ZM18.2951 126.835H19.3991V134.579H18.4391L18.2951 133.267C17.8631 134.163 16.7911 134.771 15.5751 134.771C13.7511 134.771 12.7591 133.523 12.7591 131.635V126.819H13.8791V131.283C13.8791 133.123 14.6951 133.779 15.9271 133.779C17.4151 133.779 18.2951 132.787 18.2951 130.947V126.835ZM22.8029 134.579H21.6989V126.835H22.6589L22.7869 127.939C23.1709 127.123 24.0349 126.627 25.1229 126.627C26.3389 126.627 27.2509 127.267 27.6189 128.275C27.9709 127.267 28.9149 126.627 30.1629 126.627C31.8429 126.627 32.9469 127.715 32.9469 129.507V134.579H31.8749V129.731C31.8749 128.403 31.1389 127.619 29.9549 127.619C28.6589 127.619 27.8909 128.595 27.8909 129.795V134.579H26.8029V129.715C26.8029 128.403 26.0509 127.635 24.8829 127.635C23.5869 127.635 22.8029 128.595 22.8029 129.779V134.579ZM36.1276 134.579H35.1676V122.915H36.2716V128.339C36.8156 127.203 37.8716 126.627 39.1836 126.627C41.4396 126.627 42.7516 128.387 42.7516 130.723C42.7516 133.043 41.4076 134.771 39.1516 134.771C37.8556 134.771 36.7836 134.195 36.2396 132.995L36.1276 134.579ZM36.2876 130.691C36.2876 132.483 37.2796 133.763 38.9756 133.763C40.6556 133.763 41.6316 132.483 41.6316 130.691C41.6316 128.915 40.6556 127.619 38.9756 127.619C37.2796 127.619 36.2876 128.915 36.2876 130.691ZM45.6634 134.579H44.5594V122.915H45.6634V134.579ZM51.2594 134.771C48.9874 134.771 47.4674 133.139 47.4674 130.707C47.4674 128.291 48.9714 126.627 51.1794 126.627C53.2754 126.627 54.6994 128.115 54.6994 130.307V130.851H48.5394C48.6194 132.739 49.6114 133.827 51.2754 133.827C52.5394 133.827 53.3554 133.283 53.6434 132.259H54.6994C54.2834 133.891 53.0834 134.771 51.2594 134.771ZM51.1794 127.571C49.7234 127.571 48.7634 128.531 48.5714 130.051H53.5954C53.5954 128.563 52.6354 127.571 51.1794 127.571ZM59.5045 134.771C57.2485 134.771 55.9205 133.043 55.9205 130.723C55.9205 128.387 57.2485 126.627 59.5525 126.627C60.8325 126.627 61.8565 127.187 62.4005 128.307V122.915H63.5045V134.579H62.5445L62.4325 132.995C61.8885 134.195 60.8005 134.771 59.5045 134.771ZM59.6965 133.763C61.3925 133.763 62.3845 132.483 62.3845 130.691C62.3845 128.915 61.3925 127.619 59.6965 127.619C58.0165 127.619 57.0405 128.915 57.0405 130.691C57.0405 132.483 58.0165 133.763 59.6965 133.763ZM75.6858 126.835H76.7898V134.579H75.8298L75.6858 133.267C75.2538 134.163 74.1818 134.771 72.9658 134.771C71.1418 134.771 70.1497 133.523 70.1497 131.635V126.819H71.2698V131.283C71.2698 133.123 72.0858 133.779 73.3177 133.779C74.8058 133.779 75.6858 132.787 75.6858 130.947V126.835ZM79.0895 137.955V126.835H80.0495L80.1615 128.403C80.7055 127.203 81.7935 126.627 83.0895 126.627C85.3295 126.627 86.6735 128.339 86.6735 130.675C86.6735 133.011 85.3775 134.771 83.0895 134.771C81.7775 134.771 80.7375 134.211 80.1935 133.091V137.955H79.0895ZM80.2095 130.707C80.2095 132.483 81.2015 133.779 82.8975 133.779C84.5775 133.779 85.5535 132.483 85.5535 130.707C85.5535 128.915 84.5775 127.635 82.8975 127.635C81.2015 127.635 80.2095 128.915 80.2095 130.707ZM87.8893 130.707C87.8893 128.339 89.5533 126.627 91.8253 126.627C94.0973 126.627 95.7613 128.339 95.7613 130.707C95.7613 133.059 94.0973 134.771 91.8253 134.771C89.5533 134.771 87.8893 133.059 87.8893 130.707ZM89.0093 130.691C89.0093 132.515 90.1613 133.779 91.8253 133.779C93.4733 133.779 94.6413 132.515 94.6413 130.691C94.6413 128.899 93.4733 127.619 91.8253 127.619C90.1613 127.619 89.0093 128.899 89.0093 130.691ZM98.631 134.579H97.527V126.835H98.487L98.647 128.179C99.159 127.187 100.183 126.627 101.303 126.627C103.431 126.627 104.311 127.891 104.311 129.843V134.579H103.207V130.083C103.207 128.275 102.391 127.635 101.111 127.635C99.527 127.635 98.631 128.787 98.631 130.531V134.579ZM110.501 126.099C110.501 124.179 112.037 122.915 114.341 122.915C116.405 122.915 117.765 124.067 117.941 125.987H116.773C116.645 124.691 115.765 123.955 114.325 123.955C112.709 123.955 111.653 124.787 111.653 126.083C111.653 127.091 112.245 127.731 113.445 128.035L115.413 128.515C117.205 128.947 118.133 129.971 118.133 131.523C118.133 133.507 116.597 134.771 114.229 134.771C112.005 134.771 110.501 133.603 110.357 131.731H111.541C111.605 132.931 112.661 133.715 114.229 133.715C115.909 133.715 116.981 132.899 116.981 131.587C116.981 130.563 116.405 129.891 115.173 129.603L113.237 129.123C111.445 128.691 110.501 127.667 110.501 126.099ZM121.069 134.563H119.965V122.915H121.069V128.179C121.565 127.251 122.509 126.627 123.805 126.627C125.837 126.627 126.749 127.891 126.749 129.843V134.579H125.645V130.083C125.645 128.275 124.797 127.635 123.597 127.635C121.933 127.635 121.069 128.867 121.069 130.355V134.563ZM128.405 130.707C128.405 128.339 130.069 126.627 132.341 126.627C134.613 126.627 136.277 128.339 136.277 130.707C136.277 133.059 134.613 134.771 132.341 134.771C130.069 134.771 128.405 133.059 128.405 130.707ZM129.525 130.691C129.525 132.515 130.677 133.779 132.341 133.779C133.989 133.779 135.157 132.515 135.157 130.691C135.157 128.899 133.989 127.619 132.341 127.619C130.677 127.619 129.525 128.899 129.525 130.691ZM138.043 137.955V126.835H139.003L139.115 128.403C139.659 127.203 140.747 126.627 142.043 126.627C144.283 126.627 145.627 128.339 145.627 130.675C145.627 133.011 144.331 134.771 142.043 134.771C140.731 134.771 139.691 134.211 139.147 133.091V137.955H138.043ZM139.163 130.707C139.163 132.483 140.155 133.779 141.851 133.779C143.531 133.779 144.507 132.483 144.507 130.707C144.507 128.915 143.531 127.635 141.851 127.635C140.155 127.635 139.163 128.915 139.163 130.707ZM147.846 134.755C147.302 134.755 146.838 134.307 146.838 133.779C146.838 133.235 147.302 132.771 147.846 132.771C148.39 132.771 148.854 133.235 148.854 133.779C148.854 134.307 148.39 134.755 147.846 134.755ZM150.061 130.723C150.061 128.291 151.549 126.627 153.805 126.627C155.597 126.627 156.909 127.667 157.213 129.267H156.109C155.821 128.195 154.893 127.603 153.821 127.603C152.253 127.603 151.149 128.803 151.149 130.707C151.149 132.547 152.173 133.779 153.741 133.779C154.893 133.779 155.821 133.139 156.125 132.147H157.245C156.877 133.731 155.501 134.771 153.741 134.771C151.549 134.771 150.061 133.155 150.061 130.723ZM158.374 130.707C158.374 128.339 160.038 126.627 162.31 126.627C164.582 126.627 166.246 128.339 166.246 130.707C166.246 133.059 164.582 134.771 162.31 134.771C160.038 134.771 158.374 133.059 158.374 130.707ZM159.494 130.691C159.494 132.515 160.646 133.779 162.31 133.779C163.958 133.779 165.126 132.515 165.126 130.691C165.126 128.899 163.958 127.619 162.31 127.619C160.646 127.619 159.494 128.899 159.494 130.691ZM168.471 134.755C167.927 134.755 167.463 134.307 167.463 133.779C167.463 133.235 167.927 132.771 168.471 132.771C169.015 132.771 169.479 133.235 169.479 133.779C169.479 134.307 169.015 134.755 168.471 134.755ZM175.192 124.179V123.123H183.4V124.179H179.864V134.579H178.712V124.179H175.192ZM185.85 134.563H184.746V122.915H185.85V128.179C186.346 127.251 187.29 126.627 188.586 126.627C190.618 126.627 191.53 127.891 191.53 129.843V134.579H190.426V130.083C190.426 128.275 189.578 127.635 188.378 127.635C186.714 127.635 185.85 128.867 185.85 130.355V134.563ZM196.978 134.771C194.706 134.771 193.186 133.139 193.186 130.707C193.186 128.291 194.69 126.627 196.898 126.627C198.994 126.627 200.418 128.115 200.418 130.307V130.851H194.258C194.338 132.739 195.33 133.827 196.994 133.827C198.258 133.827 199.074 133.283 199.362 132.259H200.418C200.002 133.891 198.802 134.771 196.978 134.771ZM196.898 127.571C195.442 127.571 194.482 128.531 194.29 130.051H199.314C199.314 128.563 198.354 127.571 196.898 127.571ZM205.965 132.403H207.021C207.021 133.299 207.693 133.859 208.781 133.859C209.981 133.859 210.685 133.347 210.685 132.515C210.685 131.875 210.365 131.507 209.453 131.283L208.125 130.947C206.781 130.611 206.125 129.907 206.125 128.851C206.125 127.491 207.261 126.627 208.925 126.627C210.557 126.627 211.613 127.523 211.661 128.963H210.589C210.557 128.067 209.933 127.539 208.893 127.539C207.805 127.539 207.197 128.003 207.197 128.835C207.197 129.427 207.613 129.843 208.461 130.051L209.789 130.387C211.133 130.723 211.741 131.347 211.741 132.467C211.741 133.859 210.557 134.771 208.797 134.771C207.053 134.771 205.965 133.843 205.965 132.403ZM216.806 134.771C214.534 134.771 213.014 133.139 213.014 130.707C213.014 128.291 214.518 126.627 216.726 126.627C218.822 126.627 220.246 128.115 220.246 130.307V130.851H214.086C214.166 132.739 215.158 133.827 216.822 133.827C218.086 133.827 218.902 133.283 219.19 132.259H220.246C219.83 133.891 218.63 134.771 216.806 134.771ZM216.726 127.571C215.27 127.571 214.31 128.531 214.118 130.051H219.142C219.142 128.563 218.182 127.571 216.726 127.571ZM223.163 134.579H222.059V122.915H223.163V134.579ZM228.759 134.771C226.487 134.771 224.967 133.139 224.967 130.707C224.967 128.291 226.471 126.627 228.679 126.627C230.775 126.627 232.199 128.115 232.199 130.307V130.851H226.039C226.119 132.739 227.111 133.827 228.775 133.827C230.039 133.827 230.855 133.283 231.143 132.259H232.199C231.783 133.891 230.583 134.771 228.759 134.771ZM228.679 127.571C227.223 127.571 226.263 128.531 226.071 130.051H231.095C231.095 128.563 230.135 127.571 228.679 127.571ZM233.421 130.723C233.421 128.291 234.909 126.627 237.165 126.627C238.957 126.627 240.269 127.667 240.573 129.267H239.469C239.181 128.195 238.253 127.603 237.181 127.603C235.613 127.603 234.509 128.803 234.509 130.707C234.509 132.547 235.533 133.779 237.101 133.779C238.253 133.779 239.181 133.139 239.485 132.147H240.605C240.237 133.731 238.861 134.771 237.101 134.771C234.909 134.771 233.421 133.155 233.421 130.723ZM244.053 134.579H242.965V127.763H241.413V126.835H242.965V124.387H244.053V126.835H245.605V127.763H244.053V134.579ZM247.587 124.707C247.139 124.707 246.771 124.339 246.771 123.891C246.771 123.443 247.139 123.059 247.587 123.059C248.035 123.059 248.419 123.443 248.419 123.891C248.419 124.339 248.035 124.707 247.587 124.707ZM247.043 134.579V126.835H248.147V134.579H247.043ZM249.905 130.707C249.905 128.339 251.569 126.627 253.841 126.627C256.113 126.627 257.777 128.339 257.777 130.707C257.777 133.059 256.113 134.771 253.841 134.771C251.569 134.771 249.905 133.059 249.905 130.707ZM251.025 130.691C251.025 132.515 252.177 133.779 253.841 133.779C255.489 133.779 256.657 132.515 256.657 130.691C256.657 128.899 255.489 127.619 253.841 127.619C252.177 127.619 251.025 128.899 251.025 130.691ZM260.647 134.579H259.543V126.835H260.503L260.663 128.179C261.175 127.187 262.199 126.627 263.319 126.627C265.447 126.627 266.327 127.891 266.327 129.843V134.579H265.223V130.083C265.223 128.275 264.407 127.635 263.127 127.635C261.543 127.635 260.647 128.787 260.647 130.531V134.579ZM272.421 130.707C272.421 128.339 274.085 126.627 276.357 126.627C278.629 126.627 280.293 128.339 280.293 130.707C280.293 133.059 278.629 134.771 276.357 134.771C274.085 134.771 272.421 133.059 272.421 130.707ZM273.541 130.691C273.541 132.515 274.693 133.779 276.357 133.779C278.005 133.779 279.173 132.515 279.173 130.691C279.173 128.899 278.005 127.619 276.357 127.619C274.693 127.619 273.541 128.899 273.541 130.691ZM281.132 126.835H282.316V125.331C282.316 123.587 283.276 122.915 284.46 122.915C284.732 122.915 285.052 122.931 285.308 122.979V123.923H284.652C283.676 123.923 283.42 124.419 283.42 125.331V126.835H285.244V127.763H283.42V134.579H282.316V127.763H281.132V126.835ZM0.608 152.723C0.608 150.291 2.096 148.627 4.352 148.627C6.144 148.627 7.456 149.667 7.76 151.267H6.656C6.368 150.195 5.44 149.603 4.368 149.603C2.8 149.603 1.696 150.803 1.696 152.707C1.696 154.547 2.72 155.779 4.288 155.779C5.44 155.779 6.368 155.139 6.672 154.147H7.792C7.424 155.731 6.048 156.771 4.288 156.771C2.096 156.771 0.608 155.155 0.608 152.723ZM10.6165 156.579H9.5125V144.915H10.6165V156.579ZM12.4205 152.707C12.4205 150.339 14.0845 148.627 16.3565 148.627C18.6285 148.627 20.2925 150.339 20.2925 152.707C20.2925 155.059 18.6285 156.771 16.3565 156.771C14.0845 156.771 12.4205 155.059 12.4205 152.707ZM13.5405 152.691C13.5405 154.515 14.6925 155.779 16.3565 155.779C18.0045 155.779 19.1725 154.515 19.1725 152.691C19.1725 150.899 18.0045 149.619 16.3565 149.619C14.6925 149.619 13.5405 150.899 13.5405 152.691ZM23.7561 156.579H22.6681V149.763H21.1161V148.835H22.6681V146.387H23.7561V148.835H25.3081V149.763H23.7561V156.579ZM27.8498 156.563H26.7458V144.915H27.8498V150.179C28.3458 149.251 29.2898 148.627 30.5858 148.627C32.6178 148.627 33.5298 149.891 33.5298 151.843V156.579H32.4258V152.083C32.4258 150.275 31.5778 149.635 30.3778 149.635C28.7138 149.635 27.8498 150.867 27.8498 152.355V156.563ZM38.9781 156.771C36.7061 156.771 35.1861 155.139 35.1861 152.707C35.1861 150.291 36.6901 148.627 38.8981 148.627C40.9941 148.627 42.4181 150.115 42.4181 152.307V152.851H36.2581C36.3381 154.739 37.3301 155.827 38.9941 155.827C40.2581 155.827 41.0741 155.283 41.3621 154.259H42.4181C42.0021 155.891 40.8021 156.771 38.9781 156.771ZM38.8981 149.571C37.4421 149.571 36.4821 150.531 36.2901 152.051H41.3141C41.3141 150.563 40.3541 149.571 38.8981 149.571ZM43.5273 154.403H44.5833C44.5833 155.299 45.2553 155.859 46.3433 155.859C47.5433 155.859 48.2473 155.347 48.2473 154.515C48.2473 153.875 47.9273 153.507 47.0153 153.283L45.6873 152.947C44.3433 152.611 43.6873 151.907 43.6873 150.851C43.6873 149.491 44.8233 148.627 46.4873 148.627C48.1193 148.627 49.1753 149.523 49.2233 150.963H48.1513C48.1193 150.067 47.4953 149.539 46.4553 149.539C45.3673 149.539 44.7593 150.003 44.7593 150.835C44.7593 151.427 45.1753 151.843 46.0233 152.051L47.3513 152.387C48.6953 152.723 49.3033 153.347 49.3033 154.467C49.3033 155.859 48.1193 156.771 46.3593 156.771C44.6153 156.771 43.5273 155.843 43.5273 154.403ZM56.1023 146.707C55.6543 146.707 55.2863 146.339 55.2863 145.891C55.2863 145.443 55.6543 145.059 56.1023 145.059C56.5503 145.059 56.9343 145.443 56.9343 145.891C56.9343 146.339 56.5503 146.707 56.1023 146.707ZM55.5583 156.579V148.835H56.6623V156.579H55.5583ZM58.3085 154.403H59.3645C59.3645 155.299 60.0365 155.859 61.1245 155.859C62.3245 155.859 63.0285 155.347 63.0285 154.515C63.0285 153.875 62.7085 153.507 61.7965 153.283L60.4685 152.947C59.1245 152.611 58.4685 151.907 58.4685 150.851C58.4685 149.491 59.6045 148.627 61.2685 148.627C62.9005 148.627 63.9565 149.523 64.0045 150.963H62.9325C62.9005 150.067 62.2765 149.539 61.2365 149.539C60.1485 149.539 59.5405 150.003 59.5405 150.835C59.5405 151.427 59.9565 151.843 60.8045 152.051L62.1325 152.387C63.4765 152.723 64.0845 153.347 64.0845 154.467C64.0845 155.859 62.9005 156.771 61.1405 156.771C59.3965 156.771 58.3085 155.843 58.3085 154.403ZM71.4435 156.579H70.3395V148.835H71.2995L71.4595 150.179C71.9715 149.187 72.9955 148.627 74.1155 148.627C76.2435 148.627 77.1235 149.891 77.1235 151.843V156.579H76.0195V152.083C76.0195 150.275 75.2035 149.635 73.9235 149.635C72.3395 149.635 71.4435 150.787 71.4435 152.531V156.579ZM78.7799 152.707C78.7799 150.339 80.4439 148.627 82.7159 148.627C84.9879 148.627 86.6519 150.339 86.6519 152.707C86.6519 155.059 84.9879 156.771 82.7159 156.771C80.4439 156.771 78.7799 155.059 78.7799 152.707ZM79.8999 152.691C79.8999 154.515 81.0519 155.779 82.7159 155.779C84.3639 155.779 85.5319 154.515 85.5319 152.691C85.5319 150.899 84.3639 149.619 82.7159 149.619C81.0519 149.619 79.8999 150.899 79.8999 152.691ZM90.1155 156.579H89.0275V149.763H87.4755V148.835H89.0275V146.387H90.1155V148.835H91.6675V149.763H90.1155V156.579ZM96.9986 152.707C96.9986 150.339 98.6626 148.627 100.935 148.627C103.207 148.627 104.871 150.339 104.871 152.707C104.871 155.059 103.207 156.771 100.935 156.771C98.6626 156.771 96.9986 155.059 96.9986 152.707ZM98.1186 152.691C98.1186 154.515 99.2706 155.779 100.935 155.779C102.583 155.779 103.751 154.515 103.751 152.691C103.751 150.899 102.583 149.619 100.935 149.619C99.2706 149.619 98.1186 150.899 98.1186 152.691ZM107.74 156.579H106.636V148.835H107.596L107.756 150.179C108.268 149.187 109.292 148.627 110.412 148.627C112.54 148.627 113.42 149.891 113.42 151.843V156.579H112.316V152.083C112.316 150.275 111.5 149.635 110.22 149.635C108.636 149.635 107.74 150.787 107.74 152.531V156.579ZM116.773 156.579H115.669V144.915H116.773V156.579ZM118.337 159.955V159.043H119.185C119.857 159.043 120.529 158.995 120.913 157.955L121.249 157.043L118.113 148.835H119.281L121.777 155.587L124.225 148.835H125.361L121.809 158.355C121.361 159.571 120.609 160.067 119.505 160.067C119.041 160.067 118.689 160.035 118.337 159.955ZM134.13 156.771C131.874 156.771 130.546 155.043 130.546 152.723C130.546 150.387 131.874 148.627 134.178 148.627C135.458 148.627 136.482 149.187 137.026 150.307V144.915H138.13V156.579H137.17L137.058 154.995C136.514 156.195 135.426 156.771 134.13 156.771ZM134.322 155.763C136.018 155.763 137.01 154.483 137.01 152.691C137.01 150.915 136.018 149.619 134.322 149.619C132.642 149.619 131.666 150.915 131.666 152.691C131.666 154.483 132.642 155.763 134.322 155.763ZM140.977 146.707C140.529 146.707 140.161 146.339 140.161 145.891C140.161 145.443 140.529 145.059 140.977 145.059C141.425 145.059 141.809 145.443 141.809 145.891C141.809 146.339 141.425 146.707 140.977 146.707ZM140.433 156.579V148.835H141.537V156.579H140.433ZM146 156.579L142.832 148.835H144.016L146.016 153.827C146.224 154.387 146.432 154.915 146.576 155.427C146.72 154.899 146.928 154.387 147.152 153.827L149.184 148.835H150.32L147.104 156.579H146ZM154.525 156.771C152.253 156.771 150.733 155.139 150.733 152.707C150.733 150.291 152.237 148.627 154.445 148.627C156.541 148.627 157.965 150.115 157.965 152.307V152.851H151.805C151.885 154.739 152.877 155.827 154.541 155.827C155.805 155.827 156.621 155.283 156.909 154.259H157.965C157.549 155.891 156.349 156.771 154.525 156.771ZM154.445 149.571C152.989 149.571 152.029 150.531 151.837 152.051H156.861C156.861 150.563 155.901 149.571 154.445 149.571ZM163.778 148.739V149.731H163.17C161.746 149.731 160.834 150.691 160.834 152.163V156.579H159.73V148.835H160.77L160.85 150.035C161.154 149.203 161.97 148.659 163.058 148.659C163.298 148.659 163.506 148.675 163.778 148.739ZM164.59 154.403H165.646C165.646 155.299 166.318 155.859 167.406 155.859C168.606 155.859 169.31 155.347 169.31 154.515C169.31 153.875 168.99 153.507 168.078 153.283L166.75 152.947C165.406 152.611 164.75 151.907 164.75 150.851C164.75 149.491 165.886 148.627 167.55 148.627C169.182 148.627 170.238 149.523 170.286 150.963H169.214C169.182 150.067 168.558 149.539 167.518 149.539C166.43 149.539 165.822 150.003 165.822 150.835C165.822 151.427 166.238 151.843 167.086 152.051L168.414 152.387C169.758 152.723 170.366 153.347 170.366 154.467C170.366 155.859 169.182 156.771 167.422 156.771C165.678 156.771 164.59 155.843 164.59 154.403ZM175.431 156.771C173.159 156.771 171.639 155.139 171.639 152.707C171.639 150.291 173.143 148.627 175.351 148.627C177.447 148.627 178.871 150.115 178.871 152.307V152.851H172.711C172.791 154.739 173.783 155.827 175.447 155.827C176.711 155.827 177.527 155.283 177.815 154.259H178.871C178.455 155.891 177.255 156.771 175.431 156.771ZM175.351 149.571C173.895 149.571 172.935 150.531 172.743 152.051H177.767C177.767 150.563 176.807 149.571 175.351 149.571ZM186.034 156.579H185.074V144.915H186.178V150.339C186.722 149.203 187.778 148.627 189.09 148.627C191.346 148.627 192.658 150.387 192.658 152.723C192.658 155.043 191.314 156.771 189.058 156.771C187.762 156.771 186.69 156.195 186.146 154.995L186.034 156.579ZM186.194 152.691C186.194 154.483 187.186 155.763 188.882 155.763C190.562 155.763 191.538 154.483 191.538 152.691C191.538 150.915 190.562 149.619 188.882 149.619C187.186 149.619 186.194 150.915 186.194 152.691ZM199.67 148.835H200.774V156.579H199.814L199.67 155.267C199.238 156.163 198.166 156.771 196.95 156.771C195.126 156.771 194.134 155.523 194.134 153.635V148.819H195.254V153.283C195.254 155.123 196.07 155.779 197.302 155.779C198.79 155.779 199.67 154.787 199.67 152.947V148.835ZM204.85 156.579H203.762V149.763H202.21V148.835H203.762V146.387H204.85V148.835H206.402V149.763H204.85V156.579ZM214.501 156.771C212.853 156.771 211.877 155.843 211.877 154.483C211.877 153.059 212.965 152.163 214.773 152.019L217.333 151.811V151.555C217.333 150.035 216.421 149.555 215.285 149.555C213.941 149.555 213.141 150.163 213.141 151.203H212.133C212.133 149.635 213.413 148.627 215.317 148.627C217.109 148.627 218.421 149.523 218.421 151.571V156.579H217.493L217.349 155.219C216.869 156.195 215.813 156.771 214.501 156.771ZM214.757 155.875C216.389 155.875 217.333 154.739 217.333 153.059V152.643L215.045 152.819C213.589 152.947 212.997 153.587 212.997 154.451C212.997 155.395 213.701 155.875 214.757 155.875ZM221.788 156.579H220.684V144.915H221.788V156.579ZM223.48 154.403H224.536C224.536 155.299 225.208 155.859 226.296 155.859C227.496 155.859 228.2 155.347 228.2 154.515C228.2 153.875 227.88 153.507 226.968 153.283L225.64 152.947C224.296 152.611 223.64 151.907 223.64 150.851C223.64 149.491 224.776 148.627 226.44 148.627C228.072 148.627 229.128 149.523 229.176 150.963H228.104C228.072 150.067 227.448 149.539 226.408 149.539C225.32 149.539 224.712 150.003 224.712 150.835C224.712 151.427 225.128 151.843 225.976 152.051L227.304 152.387C228.648 152.723 229.256 153.347 229.256 154.467C229.256 155.859 228.072 156.771 226.312 156.771C224.568 156.771 223.48 155.843 223.48 154.403ZM230.53 152.707C230.53 150.339 232.194 148.627 234.466 148.627C236.738 148.627 238.402 150.339 238.402 152.707C238.402 155.059 236.738 156.771 234.466 156.771C232.194 156.771 230.53 155.059 230.53 152.707ZM231.65 152.691C231.65 154.515 232.802 155.779 234.466 155.779C236.114 155.779 237.282 154.515 237.282 152.691C237.282 150.899 236.114 149.619 234.466 149.619C232.802 149.619 231.65 150.899 231.65 152.691ZM244.061 152.707C244.061 150.339 245.725 148.627 247.997 148.627C250.269 148.627 251.933 150.339 251.933 152.707C251.933 155.059 250.269 156.771 247.997 156.771C245.725 156.771 244.061 155.059 244.061 152.707ZM245.181 152.691C245.181 154.515 246.333 155.779 247.997 155.779C249.645 155.779 250.813 154.515 250.813 152.691C250.813 150.899 249.645 149.619 247.997 149.619C246.333 149.619 245.181 150.899 245.181 152.691ZM254.803 156.579H253.699V148.835H254.659L254.819 150.179C255.331 149.187 256.355 148.627 257.475 148.627C259.603 148.627 260.483 149.891 260.483 151.843V156.579H259.379V152.083C259.379 150.275 258.563 149.635 257.283 149.635C255.699 149.635 254.803 150.787 254.803 152.531V156.579ZM262.555 152.867V151.875H267.195V152.867H262.555ZM269.371 159.955V148.835H270.331L270.443 150.403C270.987 149.203 272.075 148.627 273.371 148.627C275.611 148.627 276.955 150.339 276.955 152.675C276.955 155.011 275.659 156.771 273.371 156.771C272.059 156.771 271.019 156.211 270.475 155.091V159.955H269.371ZM270.491 152.707C270.491 154.483 271.483 155.779 273.179 155.779C274.859 155.779 275.835 154.483 275.835 152.707C275.835 150.915 274.859 149.635 273.179 149.635C271.483 149.635 270.491 150.915 270.491 152.707ZM278.171 152.707C278.171 150.339 279.835 148.627 282.107 148.627C284.379 148.627 286.043 150.339 286.043 152.707C286.043 155.059 284.379 156.771 282.107 156.771C279.835 156.771 278.171 155.059 278.171 152.707ZM279.291 152.691C279.291 154.515 280.443 155.779 282.107 155.779C283.755 155.779 284.923 154.515 284.923 152.691C284.923 150.899 283.755 149.619 282.107 149.619C280.443 149.619 279.291 150.899 279.291 152.691ZM288.352 146.707C287.904 146.707 287.536 146.339 287.536 145.891C287.536 145.443 287.904 145.059 288.352 145.059C288.8 145.059 289.184 145.443 289.184 145.891C289.184 146.339 288.8 146.707 288.352 146.707ZM287.808 156.579V148.835H288.912V156.579H287.808ZM292.319 156.579H291.215V148.835H292.174L292.335 150.179C292.847 149.187 293.871 148.627 294.991 148.627C297.119 148.627 297.999 149.891 297.999 151.843V156.579H296.895V152.083C296.895 150.275 296.079 149.635 294.799 149.635C293.215 149.635 292.319 150.787 292.319 152.531V156.579ZM301.975 156.579H300.887V149.763H299.335V148.835H300.887V146.387H301.975V148.835H303.527V149.763H301.975V156.579ZM2.784 178.579L0.224 170.835H1.36L2.88 175.507C3.056 176.019 3.2 176.547 3.36 177.171C3.488 176.547 3.744 175.763 3.824 175.507L5.36 170.835H6.496L8.016 175.507C8.16 175.923 8.352 176.595 8.496 177.171C8.656 176.531 8.688 176.339 8.96 175.507L10.496 170.835H11.648L9.024 178.579H7.952L6.352 173.715C6.16 173.139 6.032 172.659 5.936 172.195C5.824 172.611 5.696 173.075 5.488 173.715L3.888 178.579H2.784ZM13.571 168.707C13.123 168.707 12.755 168.339 12.755 167.891C12.755 167.443 13.123 167.059 13.571 167.059C14.019 167.059 14.403 167.443 14.403 167.891C14.403 168.339 14.019 168.707 13.571 168.707ZM13.027 178.579V170.835H14.131V178.579H13.027ZM18.2093 178.579H17.1213V171.763H15.5693V170.835H17.1213V168.387H18.2093V170.835H19.7613V171.763H18.2093V178.579ZM22.3029 178.563H21.1989V166.915H22.3029V172.179C22.7989 171.251 23.7429 170.627 25.0389 170.627C27.0709 170.627 27.9829 171.891 27.9829 173.843V178.579H26.8789V174.083C26.8789 172.275 26.0309 171.635 24.8309 171.635C23.1669 171.635 22.3029 172.867 22.3029 174.355V178.563ZM36.3968 178.579H35.3088V171.763H33.7568V170.835H35.3088V168.387H36.3968V170.835H37.9488V171.763H36.3968V178.579ZM40.4904 178.563H39.3864V166.915H40.4904V172.179C40.9864 171.251 41.9304 170.627 43.2264 170.627C45.2584 170.627 46.1704 171.891 46.1704 173.843V178.579H45.0664V174.083C45.0664 172.275 44.2184 171.635 43.0184 171.635C41.3544 171.635 40.4904 172.867 40.4904 174.355V178.563ZM51.6188 178.771C49.3468 178.771 47.8268 177.139 47.8268 174.707C47.8268 172.291 49.3307 170.627 51.5388 170.627C53.6348 170.627 55.0588 172.115 55.0588 174.307V174.851H48.8988C48.9788 176.739 49.9708 177.827 51.6348 177.827C52.8988 177.827 53.7148 177.283 54.0028 176.259H55.0588C54.6428 177.891 53.4428 178.771 51.6188 178.771ZM51.5388 171.571C50.0828 171.571 49.1228 172.531 48.9308 174.051H53.9548C53.9548 172.563 52.9948 171.571 51.5388 171.571ZM62.4134 178.579H61.3094V166.915H62.4134V178.579ZM66.9854 178.771C65.3374 178.771 64.3614 177.843 64.3614 176.483C64.3614 175.059 65.4494 174.163 67.2574 174.019L69.8174 173.811V173.555C69.8174 172.035 68.9054 171.555 67.7694 171.555C66.4254 171.555 65.6254 172.163 65.6254 173.203H64.6174C64.6174 171.635 65.8974 170.627 67.8014 170.627C69.5934 170.627 70.9054 171.523 70.9054 173.571V178.579H69.9774L69.8334 177.219C69.3534 178.195 68.2974 178.771 66.9854 178.771ZM67.2414 177.875C68.8734 177.875 69.8174 176.739 69.8174 175.059V174.643L67.5294 174.819C66.0734 174.947 65.4814 175.587 65.4814 176.451C65.4814 177.395 66.1854 177.875 67.2414 177.875ZM74.7561 178.579H73.6681V171.763H72.1161V170.835H73.6681V168.387H74.7561V170.835H76.3081V171.763H74.7561V178.579ZM80.9156 178.771C78.6436 178.771 77.1236 177.139 77.1236 174.707C77.1236 172.291 78.6276 170.627 80.8356 170.627C82.9316 170.627 84.3556 172.115 84.3556 174.307V174.851H78.1956C78.2756 176.739 79.2676 177.827 80.9316 177.827C82.1956 177.827 83.0116 177.283 83.2996 176.259H84.3556C83.9396 177.891 82.7396 178.771 80.9156 178.771ZM80.8356 171.571C79.3796 171.571 78.4196 172.531 78.2276 174.051H83.2516C83.2516 172.563 82.2916 171.571 80.8356 171.571ZM85.4648 176.403H86.5208C86.5208 177.299 87.1928 177.859 88.2808 177.859C89.4808 177.859 90.1848 177.347 90.1848 176.515C90.1848 175.875 89.8648 175.507 88.9528 175.283L87.6248 174.947C86.2808 174.611 85.6248 173.907 85.6248 172.851C85.6248 171.491 86.7608 170.627 88.4248 170.627C90.0568 170.627 91.1128 171.523 91.1608 172.963H90.0888C90.0568 172.067 89.4328 171.539 88.3928 171.539C87.3048 171.539 86.6968 172.003 86.6968 172.835C86.6968 173.427 87.1128 173.843 87.9608 174.051L89.2888 174.387C90.6328 174.723 91.2408 175.347 91.2408 176.467C91.2408 177.859 90.0568 178.771 88.2968 178.771C86.5528 178.771 85.4648 177.843 85.4648 176.403ZM94.8343 178.579H93.7463V171.763H92.1943V170.835H93.7463V168.387H94.8343V170.835H96.3863V171.763H94.8343V178.579ZM104.037 178.579H102.949V171.763H101.397V170.835H102.949V168.387H104.037V170.835H105.589V171.763H104.037V178.579ZM111.075 170.739V171.731H110.467C109.043 171.731 108.131 172.691 108.131 174.163V178.579H107.027V170.835H108.067L108.147 172.035C108.451 171.203 109.267 170.659 110.355 170.659C110.595 170.659 110.803 170.675 111.075 170.739ZM115.494 178.771C113.222 178.771 111.702 177.139 111.702 174.707C111.702 172.291 113.206 170.627 115.414 170.627C117.51 170.627 118.934 172.115 118.934 174.307V174.851H112.774C112.854 176.739 113.846 177.827 115.51 177.827C116.774 177.827 117.59 177.283 117.878 176.259H118.934C118.518 177.891 117.318 178.771 115.494 178.771ZM115.414 171.571C113.958 171.571 112.998 172.531 112.806 174.051H117.83C117.83 172.563 116.87 171.571 115.414 171.571ZM121.803 178.579H120.699V170.835H121.659L121.819 172.179C122.331 171.187 123.355 170.627 124.475 170.627C126.603 170.627 127.483 171.891 127.483 173.843V178.579H126.379V174.083C126.379 172.275 125.563 171.635 124.283 171.635C122.699 171.635 121.803 172.787 121.803 174.531V178.579ZM132.723 178.771C130.467 178.771 129.139 177.043 129.139 174.723C129.139 172.387 130.467 170.627 132.771 170.627C134.051 170.627 135.075 171.187 135.619 172.307V166.915H136.723V178.579H135.763L135.651 176.995C135.107 178.195 134.019 178.771 132.723 178.771ZM132.915 177.763C134.611 177.763 135.603 176.483 135.603 174.691C135.603 172.915 134.611 171.619 132.915 171.619C131.235 171.619 130.259 172.915 130.259 174.691C130.259 176.483 131.235 177.763 132.915 177.763ZM138.371 176.403H139.427C139.427 177.299 140.099 177.859 141.187 177.859C142.387 177.859 143.091 177.347 143.091 176.515C143.091 175.875 142.771 175.507 141.859 175.283L140.531 174.947C139.187 174.611 138.531 173.907 138.531 172.851C138.531 171.491 139.667 170.627 141.331 170.627C142.963 170.627 144.019 171.523 144.067 172.963H142.995C142.963 172.067 142.339 171.539 141.299 171.539C140.211 171.539 139.603 172.003 139.603 172.835C139.603 173.427 140.019 173.843 140.867 174.051L142.195 174.387C143.539 174.723 144.147 175.347 144.147 176.467C144.147 177.859 142.963 178.771 141.203 178.771C139.459 178.771 138.371 177.843 138.371 176.403ZM146.784 178.755C146.24 178.755 145.776 178.307 145.776 177.779C145.776 177.235 146.24 176.771 146.784 176.771C147.328 176.771 147.792 177.235 147.792 177.779C147.792 178.307 147.328 178.755 146.784 178.755ZM150.475 168.147C150.475 169.155 149.739 170.003 148.747 170.147V169.555C149.307 169.443 149.723 169.043 149.723 168.595C149.627 168.659 149.483 168.691 149.291 168.691C148.875 168.691 148.507 168.387 148.507 167.843C148.507 167.299 148.891 166.899 149.451 166.899C149.995 166.899 150.475 167.363 150.475 168.147ZM153.067 168.147C153.067 169.155 152.315 170.003 151.339 170.147V169.555C151.899 169.443 152.315 169.043 152.315 168.579C152.219 168.643 152.091 168.691 151.883 168.691C151.467 168.691 151.083 168.387 151.083 167.843C151.083 167.299 151.467 166.899 152.027 166.899C152.587 166.899 153.067 167.363 153.067 168.147Z" fill="black" fill-opacity="0.6"/>
</svg>
