<svg width="336" height="184" viewBox="0 0 336 184" fill="none" xmlns="http://www.w3.org/2000/svg">
<path d="M11.2895 0L14.4879 6.8872L22.0264 7.80085L16.4647 12.971L17.9253 20.4229L11.2895 16.731L4.6537 20.4229L6.11428 12.971L0.552547 7.80085L8.09104 6.8872L11.2895 0Z" fill="#FFC633"/>
<path d="M40.3552 0L43.5537 6.8872L51.0922 7.80085L45.5304 12.971L46.991 20.4229L40.3552 16.731L33.7194 20.4229L35.18 12.971L29.6183 7.80085L37.1568 6.8872L40.3552 0Z" fill="#FFC633"/>
<path d="M69.421 0L72.6195 6.8872L80.158 7.80085L74.5962 12.971L76.0568 20.4229L69.421 16.731L62.7852 20.4229L64.2458 12.971L58.6841 7.80085L66.2226 6.8872L69.421 0Z" fill="#FFC633"/>
<path d="M98.4868 0L101.685 6.8872L109.224 7.80085L103.662 12.971L105.123 20.4229L98.4868 16.731L91.851 20.4229L93.3116 12.971L87.7498 7.80085L95.2883 6.8872L98.4868 0Z" fill="#FFC633"/>
<path d="M127.553 0L130.751 6.8872L138.289 7.80085L132.728 12.971L134.188 20.4229L127.553 16.731L120.917 20.4229L122.377 12.971L116.816 7.80085L124.354 6.8872L127.553 0Z" fill="#FFC633"/>
<path d="M2.88 57.0791H0.22L5.5 42.4591H8.12L13.4 57.0791H10.7L9.52 53.6991H4.06L2.88 57.0791ZM6.48 46.8191L4.82 51.5391H8.78L7.1 46.8191C6.98 46.4391 6.84 45.9991 6.8 45.6991C6.74 45.9791 6.62 46.4191 6.48 46.8191ZM17.3333 57.0791H14.9133V42.1991H17.3333V57.0791ZM24.3128 57.3391C21.3728 57.3391 19.3128 55.1991 19.3128 52.1391C19.3128 49.0391 21.3328 46.8991 24.2328 46.8991C27.1928 46.8991 29.0728 48.8791 29.0728 51.9591V52.6991L21.6328 52.7191C21.8128 54.4591 22.7328 55.3391 24.3528 55.3391C25.6928 55.3391 26.5728 54.8191 26.8528 53.8791H29.1128C28.6928 56.0391 26.8928 57.3391 24.3128 57.3391ZM24.2528 48.8991C22.8128 48.8991 21.9328 49.6791 21.6928 51.1591H26.6528C26.6528 49.7991 25.7128 48.8991 24.2528 48.8991ZM32.2964 57.0791H29.5164L32.9164 52.2391L29.5164 47.1991H32.3564L34.5364 50.5591L36.6364 47.1991H39.3764L36.0164 52.1991L39.2764 57.0791H36.4764L34.3764 53.8191L32.2964 57.0791ZM49.1409 42.4591V50.1391L55.0609 42.4591H58.0809L53.2409 48.6991L58.1409 57.0791H55.1809L51.5609 50.8591L49.1409 53.9591V57.0791H46.5809V42.4591H49.1409ZM61.3375 57.3191C60.4575 57.3191 59.7175 56.5991 59.7175 55.7391C59.7175 54.8591 60.4575 54.1391 61.3375 54.1391C62.2175 54.1391 62.9575 54.8591 62.9575 55.7391C62.9575 56.5991 62.2175 57.3191 61.3375 57.3191Z" fill="black"/>
<path d="M81 39.8291C79.0716 39.8291 77.1866 40.4009 75.5832 41.4723C73.9798 42.5436 72.7301 44.0664 71.9922 45.8479C71.2542 47.6295 71.0611 49.5899 71.4373 51.4812C71.8136 53.3725 72.7422 55.1098 74.1057 56.4734C75.4693 57.837 77.2066 58.7656 79.0979 59.1418C80.9892 59.518 82.9496 59.3249 84.7312 58.5869C86.5127 57.849 88.0355 56.5993 89.1068 54.9959C90.1782 53.3925 90.75 51.5075 90.75 49.5791C90.7473 46.9941 89.7192 44.5157 87.8913 42.6878C86.0634 40.8599 83.585 39.8318 81 39.8291ZM85.2806 47.8597L80.0306 53.1097C79.961 53.1795 79.8783 53.2348 79.7872 53.2725C79.6962 53.3103 79.5986 53.3297 79.5 53.3297C79.4014 53.3297 79.3038 53.3103 79.2128 53.2725C79.1218 53.2348 79.039 53.1795 78.9694 53.1097L76.7194 50.8597C76.5786 50.719 76.4996 50.5281 76.4996 50.3291C76.4996 50.1301 76.5786 49.9392 76.7194 49.7985C76.8601 49.6577 77.051 49.5787 77.25 49.5787C77.449 49.5787 77.6399 49.6577 77.7806 49.7985L79.5 51.5188L84.2194 46.7985C84.2891 46.7288 84.3718 46.6735 84.4628 46.6358C84.5539 46.5981 84.6515 46.5787 84.75 46.5787C84.8486 46.5787 84.9461 46.5981 85.0372 46.6358C85.1282 46.6735 85.2109 46.7288 85.2806 46.7985C85.3503 46.8682 85.4056 46.9509 85.4433 47.0419C85.481 47.133 85.5004 47.2306 85.5004 47.3291C85.5004 47.4276 85.481 47.5252 85.4433 47.6163C85.4056 47.7073 85.3503 47.79 85.2806 47.8597Z" fill="#01AB31"/>
<path d="M2.08 79.9071L1.776 83.0911H1.056L0.736 79.9071C0.672 79.3471 1.072 79.0911 1.424 79.0911C1.76 79.0911 2.144 79.3471 2.08 79.9071ZM4.336 79.9071L4.032 83.0911H3.312L2.992 79.9071C2.928 79.3471 3.328 79.0911 3.68 79.0911C4.016 79.0911 4.4 79.3471 4.336 79.9071ZM12.3101 85.5391H7.62213V90.5791H6.47013V79.1231H13.2221V80.1791H7.62213V84.4991H12.3101V85.5391ZM15.4616 80.7071C15.0136 80.7071 14.6456 80.3391 14.6456 79.8911C14.6456 79.4431 15.0136 79.0591 15.4616 79.0591C15.9096 79.0591 16.2936 79.4431 16.2936 79.8911C16.2936 80.3391 15.9096 80.7071 15.4616 80.7071ZM14.9176 90.5791V82.8351H16.0216V90.5791H14.9176ZM19.4279 90.5791H18.3239V82.8351H19.2839L19.4439 84.1791C19.9559 83.1871 20.9799 82.6271 22.0999 82.6271C24.2279 82.6271 25.1079 83.8911 25.1079 85.8431V90.5791H24.0039V86.0831C24.0039 84.2751 23.1879 83.6351 21.9079 83.6351C20.3239 83.6351 19.4279 84.7871 19.4279 86.5311V90.5791ZM30.3483 90.7711C28.0923 90.7711 26.7643 89.0431 26.7643 86.7231C26.7643 84.3871 28.0923 82.6271 30.3963 82.6271C31.6763 82.6271 32.7003 83.1871 33.2443 84.3071V78.9151H34.3483V90.5791H33.3883L33.2763 88.9951C32.7323 90.1951 31.6443 90.7711 30.3483 90.7711ZM30.5403 89.7631C32.2363 89.7631 33.2283 88.4831 33.2283 86.6911C33.2283 84.9151 32.2363 83.6191 30.5403 83.6191C28.8603 83.6191 27.8843 84.9151 27.8843 86.6911C27.8843 88.4831 28.8603 89.7631 30.5403 89.7631ZM37.196 80.7071C36.748 80.7071 36.38 80.3391 36.38 79.8911C36.38 79.4431 36.748 79.0591 37.196 79.0591C37.644 79.0591 38.028 79.4431 38.028 79.8911C38.028 80.3391 37.644 80.7071 37.196 80.7071ZM36.652 90.5791V82.8351H37.756V90.5791H36.652ZM41.1623 90.5791H40.0583V82.8351H41.0182L41.1783 84.1791C41.6903 83.1871 42.7143 82.6271 43.8343 82.6271C45.9623 82.6271 46.8423 83.8911 46.8423 85.8431V90.5791H45.7383V86.0831C45.7383 84.2751 44.9223 83.6351 43.6423 83.6351C42.0583 83.6351 41.1623 84.7871 41.1623 86.5311V90.5791ZM48.5146 86.4831C48.5146 84.3711 49.8746 82.6271 52.1466 82.6271C53.4906 82.6271 54.5146 83.2511 55.0106 84.3871L55.1226 82.8351H56.0826V90.3391C56.0826 92.6431 54.6106 94.1471 52.3386 94.1471C50.3546 94.1471 48.9626 93.0271 48.6586 91.1551H49.7626C50.0026 92.4031 50.9626 93.1391 52.3546 93.1391C53.9386 93.1391 54.9946 92.0671 54.9946 90.4511V88.6111C54.4666 89.6991 53.3946 90.3391 52.0666 90.3391C49.8586 90.3391 48.5146 88.5951 48.5146 86.4831ZM49.6186 86.4671C49.6186 88.0511 50.5946 89.3471 52.2266 89.3471C53.9066 89.3471 54.8986 88.1311 54.8986 86.4671C54.8986 84.8191 53.9386 83.6031 52.2426 83.6031C50.5786 83.6031 49.6186 84.8991 49.6186 86.4671ZM62.2799 86.7231C62.2799 84.2911 63.7679 82.6271 66.0239 82.6271C67.8159 82.6271 69.1279 83.6671 69.4319 85.2671H68.3279C68.0399 84.1951 67.1119 83.6031 66.0399 83.6031C64.4719 83.6031 63.3679 84.8031 63.3679 86.7071C63.3679 88.5471 64.3919 89.7791 65.9599 89.7791C67.1119 89.7791 68.0399 89.1391 68.3439 88.1471H69.4639C69.0959 89.7311 67.7199 90.7711 65.9599 90.7711C63.7679 90.7711 62.2799 89.1551 62.2799 86.7231ZM72.2884 90.5791H71.1844V78.9151H72.2884V90.5791ZM74.0924 86.7071C74.0924 84.3391 75.7564 82.6271 78.0284 82.6271C80.3004 82.6271 81.9644 84.3391 81.9644 86.7071C81.9644 89.0591 80.3004 90.7711 78.0284 90.7711C75.7564 90.7711 74.0924 89.0591 74.0924 86.7071ZM75.2124 86.6911C75.2124 88.5151 76.3644 89.7791 78.0284 89.7791C79.6764 89.7791 80.8444 88.5151 80.8444 86.6911C80.8444 84.8991 79.6764 83.6191 78.0284 83.6191C76.3644 83.6191 75.2124 84.8991 75.2124 86.6911ZM85.428 90.5791H84.34V83.7631H82.788V82.8351H84.34V80.3871H85.428V82.8351H86.98V83.7631H85.428V90.5791ZM89.5216 90.5631H88.4176V78.9151H89.5216V84.1791C90.0176 83.2511 90.9616 82.6271 92.2576 82.6271C94.2896 82.6271 95.2016 83.8911 95.2016 85.8431V90.5791H94.0976V86.0831C94.0976 84.2751 93.2496 83.6351 92.0496 83.6351C90.3856 83.6351 89.5216 84.8671 89.5216 86.3551V90.5631ZM100.65 90.7711C98.378 90.7711 96.858 89.1391 96.858 86.7071C96.858 84.2911 98.362 82.6271 100.57 82.6271C102.666 82.6271 104.09 84.1151 104.09 86.3071V86.8511H97.93C98.01 88.7391 99.002 89.8271 100.666 89.8271C101.93 89.8271 102.746 89.2831 103.034 88.2591H104.09C103.674 89.8911 102.474 90.7711 100.65 90.7711ZM100.57 83.5711C99.114 83.5711 98.154 84.5311 97.962 86.0511H102.986C102.986 84.5631 102.026 83.5711 100.57 83.5711ZM105.199 88.4031H106.255C106.255 89.2991 106.927 89.8591 108.015 89.8591C109.215 89.8591 109.919 89.3471 109.919 88.5151C109.919 87.8751 109.599 87.5071 108.687 87.2831L107.359 86.9471C106.015 86.6111 105.359 85.9071 105.359 84.8511C105.359 83.4911 106.495 82.6271 108.159 82.6271C109.791 82.6271 110.847 83.5231 110.895 84.9631H109.823C109.791 84.0671 109.167 83.5391 108.127 83.5391C107.039 83.5391 106.431 84.0031 106.431 84.8351C106.431 85.4271 106.847 85.8431 107.695 86.0511L109.023 86.3871C110.367 86.7231 110.975 87.3471 110.975 88.4671C110.975 89.8591 109.791 90.7711 108.031 90.7711C106.287 90.7711 105.199 89.8431 105.199 88.4031ZM119.006 90.5791H117.918V83.7631H116.366V82.8351H117.918V80.3871H119.006V82.8351H120.558V83.7631H119.006V90.5791ZM123.1 90.5631H121.996V78.9151H123.1V84.1791C123.596 83.2511 124.54 82.6271 125.836 82.6271C127.868 82.6271 128.78 83.8911 128.78 85.8431V90.5791H127.676V86.0831C127.676 84.2751 126.828 83.6351 125.628 83.6351C123.964 83.6351 123.1 84.8671 123.1 86.3551V90.5631ZM133.204 90.7711C131.556 90.7711 130.58 89.8431 130.58 88.4831C130.58 87.0591 131.668 86.1631 133.476 86.0191L136.036 85.8111V85.5551C136.036 84.0351 135.124 83.5551 133.988 83.5551C132.644 83.5551 131.844 84.1631 131.844 85.2031H130.836C130.836 83.6351 132.116 82.6271 134.02 82.6271C135.812 82.6271 137.124 83.5231 137.124 85.5711V90.5791H136.196L136.052 89.2191C135.572 90.1951 134.516 90.7711 133.204 90.7711ZM133.46 89.8751C135.092 89.8751 136.036 88.7391 136.036 87.0591V86.6431L133.748 86.8191C132.292 86.9471 131.7 87.5871 131.7 88.4511C131.7 89.3951 132.404 89.8751 133.46 89.8751ZM140.975 90.5791H139.887V83.7631H138.335V82.8351H139.887V80.3871H140.975V82.8351H142.527V83.7631H140.975V90.5791ZM150.626 90.7711C148.978 90.7711 148.002 89.8431 148.002 88.4831C148.002 87.0591 149.09 86.1631 150.898 86.0191L153.458 85.8111V85.5551C153.458 84.0351 152.546 83.5551 151.41 83.5551C150.066 83.5551 149.266 84.1631 149.266 85.2031H148.258C148.258 83.6351 149.538 82.6271 151.442 82.6271C153.234 82.6271 154.546 83.5231 154.546 85.5711V90.5791H153.618L153.474 89.2191C152.994 90.1951 151.938 90.7711 150.626 90.7711ZM150.882 89.8751C152.514 89.8751 153.458 88.7391 153.458 87.0591V86.6431L151.17 86.8191C149.714 86.9471 149.122 87.5871 149.122 88.4511C149.122 89.3951 149.826 89.8751 150.882 89.8751ZM157.913 90.5791H156.809V78.9151H157.913V90.5791ZM160.805 80.7071C160.357 80.7071 159.989 80.3391 159.989 79.8911C159.989 79.4431 160.357 79.0591 160.805 79.0591C161.253 79.0591 161.637 79.4431 161.637 79.8911C161.637 80.3391 161.253 80.7071 160.805 80.7071ZM160.261 90.5791V82.8351H161.365V90.5791H160.261ZM163.14 86.4831C163.14 84.3711 164.5 82.6271 166.772 82.6271C168.116 82.6271 169.14 83.2511 169.636 84.3871L169.748 82.8351H170.708V90.3391C170.708 92.6431 169.236 94.1471 166.964 94.1471C164.98 94.1471 163.588 93.0271 163.284 91.1551H164.388C164.628 92.4031 165.588 93.1391 166.98 93.1391C168.564 93.1391 169.62 92.0671 169.62 90.4511V88.6111C169.092 89.6991 168.02 90.3391 166.692 90.3391C164.484 90.3391 163.14 88.5951 163.14 86.4831ZM164.244 86.4671C164.244 88.0511 165.22 89.3471 166.852 89.3471C168.532 89.3471 169.524 88.1311 169.524 86.4671C169.524 84.8191 168.564 83.6031 166.868 83.6031C165.204 83.6031 164.244 84.8991 164.244 86.4671ZM174.115 90.5791H173.011V82.8351H173.971L174.131 84.1791C174.643 83.1871 175.667 82.6271 176.787 82.6271C178.915 82.6271 179.795 83.8911 179.795 85.8431V90.5791H178.691V86.0831C178.691 84.2751 177.875 83.6351 176.595 83.6351C175.011 83.6351 174.115 84.7871 174.115 86.5311V90.5791ZM188.065 90.5791L185.505 82.8351H186.641L188.161 87.5071C188.337 88.0191 188.481 88.5471 188.641 89.1711C188.769 88.5471 189.025 87.7631 189.105 87.5071L190.641 82.8351H191.777L193.297 87.5071C193.441 87.9231 193.633 88.5951 193.777 89.1711C193.937 88.5311 193.969 88.3391 194.241 87.5071L195.777 82.8351H196.929L194.305 90.5791H193.233L191.633 85.7151C191.441 85.1391 191.313 84.6591 191.217 84.1951C191.105 84.6111 190.977 85.0751 190.769 85.7151L189.169 90.5791H188.065ZM198.852 80.7071C198.404 80.7071 198.036 80.3391 198.036 79.8911C198.036 79.4431 198.404 79.0591 198.852 79.0591C199.3 79.0591 199.684 79.4431 199.684 79.8911C199.684 80.3391 199.3 80.7071 198.852 80.7071ZM198.308 90.5791V82.8351H199.412V90.5791H198.308ZM203.491 90.5791H202.403V83.7631H200.851V82.8351H202.403V80.3871H203.491V82.8351H205.043V83.7631H203.491V90.5791ZM207.584 90.5631H206.48V78.9151H207.584V84.1791C208.08 83.2511 209.024 82.6271 210.32 82.6271C212.352 82.6271 213.264 83.8911 213.264 85.8431V90.5791H212.16V86.0831C212.16 84.2751 211.312 83.6351 210.112 83.6351C208.448 83.6351 207.584 84.8671 207.584 86.3551V90.5631ZM221.006 90.5791H219.902V82.8351H220.862L220.99 83.9391C221.374 83.1231 222.238 82.6271 223.326 82.6271C224.542 82.6271 225.454 83.2671 225.822 84.2751C226.174 83.2671 227.118 82.6271 228.366 82.6271C230.046 82.6271 231.15 83.7151 231.15 85.5071V90.5791H230.078V85.7311C230.078 84.4031 229.342 83.6191 228.158 83.6191C226.862 83.6191 226.094 84.5951 226.094 85.7951V90.5791H225.006V85.7151C225.006 84.4031 224.254 83.6351 223.086 83.6351C221.79 83.6351 221.006 84.5951 221.006 85.7791V90.5791ZM232.431 93.9551V93.0431H233.279C233.951 93.0431 234.623 92.9951 235.007 91.9551L235.343 91.0431L232.207 82.8351H233.375L235.871 89.5871L238.319 82.8351H239.455L235.903 92.3551C235.455 93.5711 234.703 94.0671 233.599 94.0671C233.135 94.0671 232.783 94.0351 232.431 93.9551ZM245.183 93.9551V82.8351H246.143L246.255 84.4031C246.799 83.2031 247.887 82.6271 249.183 82.6271C251.423 82.6271 252.767 84.3391 252.767 86.6751C252.767 89.0111 251.471 90.7711 249.183 90.7711C247.871 90.7711 246.831 90.2111 246.287 89.0911V93.9551H245.183ZM246.303 86.7071C246.303 88.4831 247.295 89.7791 248.991 89.7791C250.671 89.7791 251.647 88.4831 251.647 86.7071C251.647 84.9151 250.671 83.6351 248.991 83.6351C247.295 83.6351 246.303 84.9151 246.303 86.7071ZM257.775 90.7711C255.503 90.7711 253.983 89.1391 253.983 86.7071C253.983 84.2911 255.487 82.6271 257.695 82.6271C259.791 82.6271 261.215 84.1151 261.215 86.3071V86.8511H255.055C255.135 88.7391 256.127 89.8271 257.791 89.8271C259.055 89.8271 259.871 89.2831 260.159 88.2591H261.215C260.799 89.8911 259.599 90.7711 257.775 90.7711ZM257.695 83.5711C256.239 83.5711 255.279 84.5311 255.087 86.0511H260.111C260.111 84.5631 259.151 83.5711 257.695 83.5711ZM267.028 82.7391V83.7311H266.42C264.996 83.7311 264.084 84.6911 264.084 86.1631V90.5791H262.98V82.8351H264.02L264.1 84.0351C264.404 83.2031 265.22 82.6591 266.308 82.6591C266.548 82.6591 266.756 82.6751 267.028 82.7391ZM267.84 88.4031H268.896C268.896 89.2991 269.568 89.8591 270.656 89.8591C271.856 89.8591 272.56 89.3471 272.56 88.5151C272.56 87.8751 272.24 87.5071 271.328 87.2831L270 86.9471C268.656 86.6111 268 85.9071 268 84.8511C268 83.4911 269.136 82.6271 270.8 82.6271C272.432 82.6271 273.488 83.5231 273.536 84.9631H272.464C272.432 84.0671 271.808 83.5391 270.768 83.5391C269.68 83.5391 269.072 84.0031 269.072 84.8351C269.072 85.4271 269.488 85.8431 270.336 86.0511L271.664 86.3871C273.008 86.7231 273.616 87.3471 273.616 88.4671C273.616 89.8591 272.432 90.7711 270.672 90.7711C268.928 90.7711 267.84 89.8431 267.84 88.4031ZM274.889 86.7071C274.889 84.3391 276.553 82.6271 278.825 82.6271C281.097 82.6271 282.761 84.3391 282.761 86.7071C282.761 89.0591 281.097 90.7711 278.825 90.7711C276.553 90.7711 274.889 89.0591 274.889 86.7071ZM276.009 86.6911C276.009 88.5151 277.161 89.7791 278.825 89.7791C280.473 89.7791 281.641 88.5151 281.641 86.6911C281.641 84.8991 280.473 83.6191 278.825 83.6191C277.161 83.6191 276.009 84.8991 276.009 86.6911ZM285.631 90.5791H284.527V82.8351H285.487L285.647 84.1791C286.159 83.1871 287.183 82.6271 288.303 82.6271C290.431 82.6271 291.311 83.8911 291.311 85.8431V90.5791H290.207V86.0831C290.207 84.2751 289.391 83.6351 288.111 83.6351C286.527 83.6351 285.631 84.7871 285.631 86.5311V90.5791ZM295.735 90.7711C294.087 90.7711 293.111 89.8431 293.111 88.4831C293.111 87.0591 294.199 86.1631 296.007 86.0191L298.567 85.8111V85.5551C298.567 84.0351 297.655 83.5551 296.519 83.5551C295.175 83.5551 294.375 84.1631 294.375 85.2031H293.367C293.367 83.6351 294.647 82.6271 296.551 82.6271C298.343 82.6271 299.655 83.5231 299.655 85.5711V90.5791H298.727L298.583 89.2191C298.103 90.1951 297.047 90.7711 295.735 90.7711ZM295.991 89.8751C297.623 89.8751 298.567 88.7391 298.567 87.0591V86.6431L296.279 86.8191C294.823 86.9471 294.231 87.5871 294.231 88.4511C294.231 89.3951 294.935 89.8751 295.991 89.8751ZM303.023 90.5791H301.919V78.9151H303.023V90.5791ZM0.496 110.403H1.552C1.552 111.299 2.224 111.859 3.312 111.859C4.512 111.859 5.216 111.347 5.216 110.515C5.216 109.875 4.896 109.507 3.984 109.283L2.656 108.947C1.312 108.611 0.656 107.907 0.656 106.851C0.656 105.491 1.792 104.627 3.456 104.627C5.088 104.627 6.144 105.523 6.192 106.963H5.12C5.088 106.067 4.464 105.539 3.424 105.539C2.336 105.539 1.728 106.003 1.728 106.835C1.728 107.427 2.144 107.843 2.992 108.051L4.32 108.387C5.664 108.723 6.272 109.347 6.272 110.467C6.272 111.859 5.088 112.771 3.328 112.771C1.584 112.771 0.496 111.843 0.496 110.403ZM9.8655 112.579H8.7775V105.763H7.2255V104.835H8.7775V102.387H9.8655V104.835H11.4175V105.763H9.8655V112.579ZM12.0711 115.955V115.043H12.9191C13.5911 115.043 14.2631 114.995 14.6471 113.955L14.9831 113.043L11.8471 104.835H13.0151L15.5111 111.587L17.9591 104.835H19.0951L15.5431 114.355C15.0951 115.571 14.3431 116.067 13.2391 116.067C12.7751 116.067 12.4231 116.035 12.0711 115.955ZM21.5384 112.579H20.4344V100.915H21.5384V112.579ZM27.1344 112.771C24.8624 112.771 23.3424 111.139 23.3424 108.707C23.3424 106.291 24.8464 104.627 27.0544 104.627C29.1504 104.627 30.5744 106.115 30.5744 108.307V108.851H24.4144C24.4944 110.739 25.4864 111.827 27.1504 111.827C28.4144 111.827 29.2304 111.283 29.5184 110.259H30.5744C30.1584 111.891 28.9584 112.771 27.1344 112.771ZM27.0544 105.571C25.5984 105.571 24.6384 106.531 24.4464 108.051H29.4704C29.4704 106.563 28.5104 105.571 27.0544 105.571ZM42.217 104.835H43.321V112.579H42.361L42.217 111.267C41.785 112.163 40.713 112.771 39.497 112.771C37.673 112.771 36.681 111.523 36.681 109.635V104.819H37.801V109.283C37.801 111.123 38.617 111.779 39.849 111.779C41.337 111.779 42.217 110.787 42.217 108.947V104.835ZM44.8085 110.403H45.8645C45.8645 111.299 46.5365 111.859 47.6245 111.859C48.8245 111.859 49.5285 111.347 49.5285 110.515C49.5285 109.875 49.2085 109.507 48.2965 109.283L46.9685 108.947C45.6245 108.611 44.9685 107.907 44.9685 106.851C44.9685 105.491 46.1045 104.627 47.7685 104.627C49.4005 104.627 50.4565 105.523 50.5045 106.963H49.4325C49.4005 106.067 48.7765 105.539 47.7365 105.539C46.6485 105.539 46.0405 106.003 46.0405 106.835C46.0405 107.427 46.4565 107.843 47.3045 108.051L48.6325 108.387C49.9765 108.723 50.5845 109.347 50.5845 110.467C50.5845 111.859 49.4005 112.771 47.6405 112.771C45.8965 112.771 44.8085 111.843 44.8085 110.403ZM55.65 112.771C53.378 112.771 51.858 111.139 51.858 108.707C51.858 106.291 53.362 104.627 55.57 104.627C57.666 104.627 59.09 106.115 59.09 108.307V108.851H52.93C53.01 110.739 54.002 111.827 55.666 111.827C56.93 111.827 57.746 111.283 58.034 110.259H59.09C58.674 111.891 57.474 112.771 55.65 112.771ZM55.57 105.571C54.114 105.571 53.154 106.531 52.962 108.051H57.986C57.986 106.563 57.026 105.571 55.57 105.571ZM63.8951 112.771C61.6391 112.771 60.3111 111.043 60.3111 108.723C60.3111 106.387 61.6391 104.627 63.9431 104.627C65.2231 104.627 66.2471 105.187 66.7911 106.307V100.915H67.8951V112.579H66.9351L66.8231 110.995C66.2791 112.195 65.1911 112.771 63.8951 112.771ZM64.0871 111.763C65.7831 111.763 66.7751 110.483 66.7751 108.691C66.7751 106.915 65.7831 105.619 64.0871 105.619C62.4071 105.619 61.4311 106.915 61.4311 108.691C61.4311 110.483 62.4071 111.763 64.0871 111.763ZM76.4124 112.579H75.3244V105.763H73.7724V104.835H75.3244V102.387H76.4124V104.835H77.9644V105.763H76.4124V112.579ZM78.7799 108.707C78.7799 106.339 80.4439 104.627 82.7159 104.627C84.9879 104.627 86.6519 106.339 86.6519 108.707C86.6519 111.059 84.9879 112.771 82.7159 112.771C80.4439 112.771 78.7799 111.059 78.7799 108.707ZM79.8999 108.691C79.8999 110.515 81.0519 111.779 82.7159 111.779C84.3639 111.779 85.5319 110.515 85.5319 108.691C85.5319 106.899 84.3639 105.619 82.7159 105.619C81.0519 105.619 79.8999 106.899 79.8999 108.691ZM93.8151 112.579H92.8551V100.915H93.9591V106.339C94.5031 105.203 95.5591 104.627 96.8711 104.627C99.1271 104.627 100.439 106.387 100.439 108.723C100.439 111.043 99.0951 112.771 96.8391 112.771C95.5431 112.771 94.4711 112.195 93.9271 110.995L93.8151 112.579ZM93.9751 108.691C93.9751 110.483 94.9671 111.763 96.6631 111.763C98.3431 111.763 99.3191 110.483 99.3191 108.691C99.3191 106.915 98.3431 105.619 96.6631 105.619C94.9671 105.619 93.9751 106.915 93.9751 108.691ZM105.447 112.771C103.175 112.771 101.655 111.139 101.655 108.707C101.655 106.291 103.159 104.627 105.367 104.627C107.463 104.627 108.887 106.115 108.887 108.307V108.851H102.727C102.807 110.739 103.799 111.827 105.463 111.827C106.727 111.827 107.543 111.283 107.831 110.259H108.887C108.471 111.891 107.271 112.771 105.447 112.771ZM105.367 105.571C103.911 105.571 102.951 106.531 102.759 108.051H107.783C107.783 106.563 106.823 105.571 105.367 105.571ZM117.314 112.771C115.666 112.771 114.69 111.843 114.69 110.483C114.69 109.059 115.778 108.163 117.586 108.019L120.146 107.811V107.555C120.146 106.035 119.234 105.555 118.098 105.555C116.754 105.555 115.954 106.163 115.954 107.203H114.946C114.946 105.635 116.226 104.627 118.13 104.627C119.922 104.627 121.234 105.523 121.234 107.571V112.579H120.306L120.162 111.219C119.682 112.195 118.626 112.771 117.314 112.771ZM117.57 111.875C119.202 111.875 120.146 110.739 120.146 109.059V108.643L117.858 108.819C116.402 108.947 115.81 109.587 115.81 110.451C115.81 111.395 116.514 111.875 117.57 111.875ZM127.342 108.723C127.342 106.291 128.83 104.627 131.086 104.627C132.878 104.627 134.19 105.667 134.494 107.267H133.39C133.102 106.195 132.174 105.603 131.102 105.603C129.534 105.603 128.43 106.803 128.43 108.707C128.43 110.547 129.454 111.779 131.022 111.779C132.174 111.779 133.102 111.139 133.406 110.147H134.526C134.158 111.731 132.782 112.771 131.022 112.771C128.83 112.771 127.342 111.155 127.342 108.723ZM137.303 112.563H136.199V100.915H137.303V106.179C137.799 105.251 138.743 104.627 140.039 104.627C142.071 104.627 142.983 105.891 142.983 107.843V112.579H141.879V108.083C141.879 106.275 141.031 105.635 139.831 105.635C138.167 105.635 137.303 106.867 137.303 108.355V112.563ZM147.407 112.771C145.759 112.771 144.783 111.843 144.783 110.483C144.783 109.059 145.871 108.163 147.679 108.019L150.239 107.811V107.555C150.239 106.035 149.327 105.555 148.191 105.555C146.847 105.555 146.047 106.163 146.047 107.203H145.039C145.039 105.635 146.319 104.627 148.223 104.627C150.015 104.627 151.327 105.523 151.327 107.571V112.579H150.399L150.255 111.219C149.775 112.195 148.719 112.771 147.407 112.771ZM147.663 111.875C149.295 111.875 150.239 110.739 150.239 109.059V108.643L147.951 108.819C146.495 108.947 145.903 109.587 145.903 110.451C145.903 111.395 146.607 111.875 147.663 111.875ZM154.695 112.579H153.591V100.915H154.695V112.579ZM158.195 112.579H157.091V100.915H158.195V112.579ZM163.791 112.771C161.519 112.771 159.999 111.139 159.999 108.707C159.999 106.291 161.503 104.627 163.711 104.627C165.807 104.627 167.231 106.115 167.231 108.307V108.851H161.071C161.151 110.739 162.143 111.827 163.807 111.827C165.071 111.827 165.887 111.283 166.175 110.259H167.231C166.815 111.891 165.615 112.771 163.791 112.771ZM163.711 105.571C162.255 105.571 161.295 106.531 161.103 108.051H166.127C166.127 106.563 165.167 105.571 163.711 105.571ZM170.1 112.579H168.996V104.835H169.956L170.116 106.179C170.628 105.187 171.652 104.627 172.772 104.627C174.9 104.627 175.78 105.891 175.78 107.843V112.579H174.676V108.083C174.676 106.275 173.86 105.635 172.58 105.635C170.996 105.635 170.1 106.787 170.1 108.531V112.579ZM177.452 108.483C177.452 106.371 178.812 104.627 181.084 104.627C182.428 104.627 183.452 105.251 183.948 106.387L184.06 104.835H185.02V112.339C185.02 114.643 183.548 116.147 181.276 116.147C179.292 116.147 177.9 115.027 177.596 113.155H178.7C178.94 114.403 179.9 115.139 181.292 115.139C182.876 115.139 183.932 114.067 183.932 112.451V110.611C183.404 111.699 182.332 112.339 181.004 112.339C178.796 112.339 177.452 110.595 177.452 108.483ZM178.556 108.467C178.556 110.051 179.532 111.347 181.164 111.347C182.844 111.347 183.836 110.131 183.836 108.467C183.836 106.819 182.876 105.603 181.18 105.603C179.516 105.603 178.556 106.899 178.556 108.467ZM190.572 112.771C188.3 112.771 186.78 111.139 186.78 108.707C186.78 106.291 188.284 104.627 190.492 104.627C192.588 104.627 194.012 106.115 194.012 108.307V108.851H187.852C187.932 110.739 188.924 111.827 190.588 111.827C191.852 111.827 192.668 111.283 192.956 110.259H194.012C193.596 111.891 192.396 112.771 190.572 112.771ZM190.492 105.571C189.036 105.571 188.076 106.531 187.884 108.051H192.908C192.908 106.563 191.948 105.571 190.492 105.571ZM205.655 104.835H206.759V112.579H205.799L205.655 111.267C205.223 112.163 204.151 112.771 202.935 112.771C201.111 112.771 200.118 111.523 200.118 109.635V104.819H201.239V109.283C201.239 111.123 202.055 111.779 203.286 111.779C204.775 111.779 205.655 110.787 205.655 108.947V104.835ZM210.162 112.579H209.058V104.835H210.018L210.178 106.179C210.69 105.187 211.714 104.627 212.834 104.627C214.962 104.627 215.842 105.891 215.842 107.843V112.579H214.738V108.083C214.738 106.275 213.922 105.635 212.642 105.635C211.058 105.635 210.162 106.787 210.162 108.531V112.579ZM219.819 112.579H218.731V105.763H217.179V104.835H218.731V102.387H219.819V104.835H221.371V105.763H219.819V112.579ZM223.352 102.707C222.904 102.707 222.536 102.339 222.536 101.891C222.536 101.443 222.904 101.059 223.352 101.059C223.8 101.059 224.184 101.443 224.184 101.891C224.184 102.339 223.8 102.707 223.352 102.707ZM222.808 112.579V104.835H223.912V112.579H222.808ZM227.367 112.579H226.263V100.915H227.367V112.579ZM235.544 101.123V112.579H234.392V101.123H235.544ZM245.567 112.771C243.311 112.771 241.983 111.043 241.983 108.723C241.983 106.387 243.311 104.627 245.615 104.627C246.895 104.627 247.919 105.187 248.463 106.307V100.915H249.567V112.579H248.607L248.495 110.995C247.951 112.195 246.863 112.771 245.567 112.771ZM245.759 111.763C247.455 111.763 248.447 110.483 248.447 108.691C248.447 106.915 247.455 105.619 245.759 105.619C244.079 105.619 243.103 106.915 243.103 108.691C243.103 110.483 244.079 111.763 245.759 111.763ZM252.415 102.707C251.967 102.707 251.599 102.339 251.599 101.891C251.599 101.443 251.967 101.059 252.415 101.059C252.863 101.059 253.247 101.443 253.247 101.891C253.247 102.339 252.863 102.707 252.415 102.707ZM251.871 112.579V104.835H252.975V112.579H251.871ZM254.621 110.403H255.677C255.677 111.299 256.349 111.859 257.437 111.859C258.637 111.859 259.341 111.347 259.341 110.515C259.341 109.875 259.021 109.507 258.109 109.283L256.781 108.947C255.437 108.611 254.781 107.907 254.781 106.851C254.781 105.491 255.917 104.627 257.581 104.627C259.213 104.627 260.269 105.523 260.317 106.963H259.245C259.213 106.067 258.589 105.539 257.549 105.539C256.461 105.539 255.853 106.003 255.853 106.835C255.853 107.427 256.269 107.843 257.117 108.051L258.445 108.387C259.789 108.723 260.397 109.347 260.397 110.467C260.397 111.859 259.213 112.771 257.453 112.771C255.709 112.771 254.621 111.843 254.621 110.403ZM261.671 108.723C261.671 106.291 263.159 104.627 265.415 104.627C267.207 104.627 268.519 105.667 268.823 107.267H267.719C267.431 106.195 266.503 105.603 265.431 105.603C263.863 105.603 262.759 106.803 262.759 108.707C262.759 110.547 263.783 111.779 265.351 111.779C266.503 111.779 267.431 111.139 267.735 110.147H268.855C268.487 111.731 267.111 112.771 265.351 112.771C263.159 112.771 261.671 111.155 261.671 108.723ZM269.983 108.707C269.983 106.339 271.647 104.627 273.919 104.627C276.191 104.627 277.855 106.339 277.855 108.707C277.855 111.059 276.191 112.771 273.919 112.771C271.647 112.771 269.983 111.059 269.983 108.707ZM271.103 108.691C271.103 110.515 272.255 111.779 273.919 111.779C275.567 111.779 276.735 110.515 276.735 108.691C276.735 106.899 275.567 105.619 273.919 105.619C272.255 105.619 271.103 106.899 271.103 108.691ZM281.437 112.579L278.269 104.835H279.453L281.453 109.827C281.661 110.387 281.869 110.915 282.013 111.427C282.157 110.899 282.365 110.387 282.589 109.827L284.621 104.835H285.757L282.541 112.579H281.437ZM289.963 112.771C287.691 112.771 286.171 111.139 286.171 108.707C286.171 106.291 287.674 104.627 289.883 104.627C291.979 104.627 293.403 106.115 293.403 108.307V108.851H287.243C287.323 110.739 288.315 111.827 289.979 111.827C291.243 111.827 292.059 111.283 292.347 110.259H293.403C292.987 111.891 291.787 112.771 289.963 112.771ZM289.883 105.571C288.427 105.571 287.467 106.531 287.275 108.051H292.299C292.299 106.563 291.339 105.571 289.883 105.571ZM299.216 104.739V105.731H298.608C297.184 105.731 296.272 106.691 296.272 108.163V112.579H295.168V104.835H296.208L296.288 106.035C296.592 105.203 297.408 104.659 298.496 104.659C298.736 104.659 298.944 104.675 299.216 104.739ZM303.634 112.771C301.362 112.771 299.842 111.139 299.842 108.707C299.842 106.291 301.346 104.627 303.554 104.627C305.65 104.627 307.074 106.115 307.074 108.307V108.851H300.914C300.994 110.739 301.986 111.827 303.65 111.827C304.914 111.827 305.73 111.283 306.018 110.259H307.074C306.658 111.891 305.458 112.771 303.634 112.771ZM303.554 105.571C302.098 105.571 301.138 106.531 300.946 108.051H305.97C305.97 106.563 305.01 105.571 303.554 105.571ZM311.88 112.771C309.624 112.771 308.296 111.043 308.296 108.723C308.296 106.387 309.624 104.627 311.928 104.627C313.208 104.627 314.232 105.187 314.776 106.307V100.915H315.88V112.579H314.92L314.808 110.995C314.264 112.195 313.176 112.771 311.88 112.771ZM312.072 111.763C313.768 111.763 314.76 110.483 314.76 108.691C314.76 106.915 313.768 105.619 312.072 105.619C310.392 105.619 309.416 106.915 309.416 108.691C309.416 110.483 310.392 111.763 312.072 111.763ZM0.704 126.099C0.704 124.179 2.24 122.915 4.544 122.915C6.608 122.915 7.968 124.067 8.144 125.987H6.976C6.848 124.691 5.968 123.955 4.528 123.955C2.912 123.955 1.856 124.787 1.856 126.083C1.856 127.091 2.448 127.731 3.648 128.035L5.616 128.515C7.408 128.947 8.336 129.971 8.336 131.523C8.336 133.507 6.8 134.771 4.432 134.771C2.208 134.771 0.704 133.603 0.56 131.731H1.744C1.808 132.931 2.864 133.715 4.432 133.715C6.112 133.715 7.184 132.899 7.184 131.587C7.184 130.563 6.608 129.891 5.376 129.603L3.44 129.123C1.648 128.691 0.704 127.667 0.704 126.099ZM11.2716 134.563H10.1676V122.915H11.2716V128.179C11.7676 127.251 12.7116 126.627 14.0076 126.627C16.0396 126.627 16.9516 127.891 16.9516 129.843V134.579H15.8476V130.083C15.8476 128.275 14.9996 127.635 13.7996 127.635C12.1356 127.635 11.2716 128.867 11.2716 130.355V134.563ZM18.608 130.707C18.608 128.339 20.272 126.627 22.544 126.627C24.816 126.627 26.48 128.339 26.48 130.707C26.48 133.059 24.816 134.771 22.544 134.771C20.272 134.771 18.608 133.059 18.608 130.707ZM19.728 130.691C19.728 132.515 20.88 133.779 22.544 133.779C24.192 133.779 25.36 132.515 25.36 130.691C25.36 128.899 24.192 127.619 22.544 127.619C20.88 127.619 19.728 128.899 19.728 130.691ZM28.2458 137.955V126.835H29.2057L29.3178 128.403C29.8618 127.203 30.9498 126.627 32.2458 126.627C34.4858 126.627 35.8298 128.339 35.8298 130.675C35.8298 133.011 34.5338 134.771 32.2458 134.771C30.9338 134.771 29.8938 134.211 29.3498 133.091V137.955H28.2458ZM29.3658 130.707C29.3658 132.483 30.3578 133.779 32.0538 133.779C33.7338 133.779 34.7098 132.483 34.7098 130.707C34.7098 128.915 33.7338 127.635 32.0538 127.635C30.3578 127.635 29.3658 128.915 29.3658 130.707ZM38.0491 134.755C37.5051 134.755 37.0411 134.307 37.0411 133.779C37.0411 133.235 37.5051 132.771 38.0491 132.771C38.5931 132.771 39.0571 133.235 39.0571 133.779C39.0571 134.307 38.5931 134.755 38.0491 134.755ZM40.2643 130.723C40.2643 128.291 41.7523 126.627 44.0083 126.627C45.8003 126.627 47.1123 127.667 47.4163 129.267H46.3123C46.0243 128.195 45.0963 127.603 44.0243 127.603C42.4563 127.603 41.3523 128.803 41.3523 130.707C41.3523 132.547 42.3763 133.779 43.9443 133.779C45.0963 133.779 46.0243 133.139 46.3283 132.147H47.4483C47.0803 133.731 45.7043 134.771 43.9443 134.771C41.7523 134.771 40.2643 133.155 40.2643 130.723ZM48.5768 130.707C48.5768 128.339 50.2408 126.627 52.5128 126.627C54.7848 126.627 56.4488 128.339 56.4488 130.707C56.4488 133.059 54.7848 134.771 52.5128 134.771C50.2408 134.771 48.5768 133.059 48.5768 130.707ZM49.6968 130.691C49.6968 132.515 50.8488 133.779 52.5128 133.779C54.1608 133.779 55.3288 132.515 55.3288 130.691C55.3288 128.899 54.1608 127.619 52.5128 127.619C50.8488 127.619 49.6968 128.899 49.6968 130.691ZM58.6741 134.755C58.1301 134.755 57.6661 134.307 57.6661 133.779C57.6661 133.235 58.1301 132.771 58.6741 132.771C59.2181 132.771 59.6821 133.235 59.6821 133.779C59.6821 134.307 59.2181 134.755 58.6741 134.755ZM65.3951 124.179V123.123H73.6031V124.179H70.0671V134.579H68.9151V124.179H65.3951ZM76.0529 134.563H74.9489V122.915H76.0529V128.179C76.5489 127.251 77.4929 126.627 78.7889 126.627C80.8209 126.627 81.7329 127.891 81.7329 129.843V134.579H80.6289V130.083C80.6289 128.275 79.7809 127.635 78.5809 127.635C76.9169 127.635 76.0529 128.867 76.0529 130.355V134.563ZM87.1813 134.771C84.9093 134.771 83.3893 133.139 83.3893 130.707C83.3893 128.291 84.8932 126.627 87.1013 126.627C89.1973 126.627 90.6213 128.115 90.6213 130.307V130.851H84.4613C84.5413 132.739 85.5333 133.827 87.1973 133.827C88.4613 133.827 89.2773 133.283 89.5653 132.259H90.6213C90.2053 133.891 89.0053 134.771 87.1813 134.771ZM87.1013 127.571C85.6453 127.571 84.6853 128.531 84.4933 130.051H89.5173C89.5173 128.563 88.5573 127.571 87.1013 127.571ZM100.872 126.739V127.731H100.264C98.8399 127.731 97.9279 128.691 97.9279 130.163V134.579H96.8239V126.835H97.8639L97.9439 128.035C98.2479 127.203 99.0639 126.659 100.152 126.659C100.392 126.659 100.6 126.675 100.872 126.739ZM104.251 134.771C102.603 134.771 101.627 133.843 101.627 132.483C101.627 131.059 102.715 130.163 104.523 130.019L107.083 129.811V129.555C107.083 128.035 106.171 127.555 105.035 127.555C103.691 127.555 102.891 128.163 102.891 129.203H101.883C101.883 127.635 103.163 126.627 105.067 126.627C106.859 126.627 108.171 127.523 108.171 129.571V134.579H107.243L107.099 133.219C106.619 134.195 105.563 134.771 104.251 134.771ZM104.507 133.875C106.139 133.875 107.083 132.739 107.083 131.059V130.643L104.795 130.819C103.339 130.947 102.747 131.587 102.747 132.451C102.747 133.395 103.451 133.875 104.507 133.875ZM111.49 134.579H110.386V126.835H111.346L111.506 128.179C112.018 127.187 113.042 126.627 114.162 126.627C116.29 126.627 117.17 127.891 117.17 129.843V134.579H116.066V130.083C116.066 128.275 115.25 127.635 113.97 127.635C112.386 127.635 111.49 128.787 111.49 130.531V134.579ZM118.843 130.483C118.843 128.371 120.203 126.627 122.475 126.627C123.819 126.627 124.843 127.251 125.339 128.387L125.451 126.835H126.411V134.339C126.411 136.643 124.939 138.147 122.667 138.147C120.683 138.147 119.291 137.027 118.987 135.155H120.091C120.331 136.403 121.291 137.139 122.683 137.139C124.267 137.139 125.323 136.067 125.323 134.451V132.611C124.795 133.699 123.723 134.339 122.395 134.339C120.187 134.339 118.843 132.595 118.843 130.483ZM119.947 130.467C119.947 132.051 120.923 133.347 122.555 133.347C124.235 133.347 125.227 132.131 125.227 130.467C125.227 128.819 124.267 127.603 122.571 127.603C120.907 127.603 119.947 128.899 119.947 130.467ZM131.963 134.771C129.691 134.771 128.171 133.139 128.171 130.707C128.171 128.291 129.674 126.627 131.883 126.627C133.979 126.627 135.403 128.115 135.403 130.307V130.851H129.243C129.323 132.739 130.315 133.827 131.979 133.827C133.243 133.827 134.059 133.283 134.347 132.259H135.403C134.987 133.891 133.787 134.771 131.963 134.771ZM131.883 127.571C130.427 127.571 129.467 128.531 129.275 130.051H134.299C134.299 128.563 133.339 127.571 131.883 127.571ZM141.061 130.707C141.061 128.339 142.725 126.627 144.997 126.627C147.269 126.627 148.933 128.339 148.933 130.707C148.933 133.059 147.269 134.771 144.997 134.771C142.725 134.771 141.061 133.059 141.061 130.707ZM142.181 130.691C142.181 132.515 143.333 133.779 144.997 133.779C146.645 133.779 147.813 132.515 147.813 130.691C147.813 128.899 146.645 127.619 144.997 127.619C143.333 127.619 142.181 128.899 142.181 130.691ZM149.772 126.835H150.956V125.331C150.956 123.587 151.916 122.915 153.1 122.915C153.372 122.915 153.692 122.931 153.948 122.979V123.923H153.292C152.316 123.923 152.06 124.419 152.06 125.331V126.835H153.884V127.763H152.06V134.579H150.956V127.763H149.772V126.835ZM159.28 130.707C159.28 128.339 160.944 126.627 163.216 126.627C165.488 126.627 167.152 128.339 167.152 130.707C167.152 133.059 165.488 134.771 163.216 134.771C160.944 134.771 159.28 133.059 159.28 130.707ZM160.4 130.691C160.4 132.515 161.552 133.779 163.216 133.779C164.864 133.779 166.032 132.515 166.032 130.691C166.032 128.899 164.864 127.619 163.216 127.619C161.552 127.619 160.4 128.899 160.4 130.691ZM168.918 137.955V126.835H169.878L169.99 128.403C170.534 127.203 171.622 126.627 172.918 126.627C175.158 126.627 176.502 128.339 176.502 130.675C176.502 133.011 175.206 134.771 172.918 134.771C171.606 134.771 170.566 134.211 170.022 133.091V137.955H168.918ZM170.038 130.707C170.038 132.483 171.03 133.779 172.726 133.779C174.406 133.779 175.382 132.483 175.382 130.707C175.382 128.915 174.406 127.635 172.726 127.635C171.03 127.635 170.038 128.915 170.038 130.707ZM179.959 134.579H178.871V127.763H177.319V126.835H178.871V124.387H179.959V126.835H181.511V127.763H179.959V134.579ZM183.493 124.707C183.045 124.707 182.677 124.339 182.677 123.891C182.677 123.443 183.045 123.059 183.493 123.059C183.941 123.059 184.325 123.443 184.325 123.891C184.325 124.339 183.941 124.707 183.493 124.707ZM182.949 134.579V126.835H184.053V134.579H182.949ZM185.811 130.707C185.811 128.339 187.475 126.627 189.747 126.627C192.019 126.627 193.683 128.339 193.683 130.707C193.683 133.059 192.019 134.771 189.747 134.771C187.475 134.771 185.811 133.059 185.811 130.707ZM186.931 130.691C186.931 132.515 188.083 133.779 189.747 133.779C191.395 133.779 192.563 132.515 192.563 130.691C192.563 128.899 191.395 127.619 189.747 127.619C188.083 127.619 186.931 128.899 186.931 130.691ZM196.553 134.579H195.449V126.835H196.409L196.569 128.179C197.081 127.187 198.105 126.627 199.225 126.627C201.353 126.627 202.233 127.891 202.233 129.843V134.579H201.129V130.083C201.129 128.275 200.313 127.635 199.033 127.635C197.449 127.635 196.553 128.787 196.553 130.531V134.579ZM203.684 132.403H204.74C204.74 133.299 205.412 133.859 206.5 133.859C207.7 133.859 208.404 133.347 208.404 132.515C208.404 131.875 208.084 131.507 207.172 131.283L205.844 130.947C204.5 130.611 203.844 129.907 203.844 128.851C203.844 127.491 204.98 126.627 206.644 126.627C208.276 126.627 209.332 127.523 209.38 128.963H208.308C208.276 128.067 207.652 127.539 206.612 127.539C205.524 127.539 204.916 128.003 204.916 128.835C204.916 129.427 205.332 129.843 206.18 130.051L207.508 130.387C208.852 130.723 209.46 131.347 209.46 132.467C209.46 133.859 208.276 134.771 206.516 134.771C204.772 134.771 203.684 133.843 203.684 132.403ZM217.491 134.579H216.403V127.763H214.851V126.835H216.403V124.387H217.491V126.835H219.043V127.763H217.491V134.579ZM221.584 134.563H220.48V122.915H221.584V128.179C222.08 127.251 223.024 126.627 224.32 126.627C226.352 126.627 227.264 127.891 227.264 129.843V134.579H226.16V130.083C226.16 128.275 225.312 127.635 224.112 127.635C222.448 127.635 221.584 128.867 221.584 130.355V134.563ZM232.713 134.771C230.441 134.771 228.921 133.139 228.921 130.707C228.921 128.291 230.424 126.627 232.633 126.627C234.729 126.627 236.153 128.115 236.153 130.307V130.851H229.993C230.073 132.739 231.065 133.827 232.729 133.827C233.993 133.827 234.809 133.283 235.097 132.259H236.153C235.737 133.891 234.537 134.771 232.713 134.771ZM232.633 127.571C231.177 127.571 230.217 128.531 230.025 130.051H235.049C235.049 128.563 234.089 127.571 232.633 127.571ZM236.946 137.955V137.043H237.794C238.466 137.043 239.138 136.995 239.522 135.955L239.858 135.043L236.722 126.835H237.89L240.386 133.587L242.834 126.835H243.97L240.418 136.355C239.97 137.571 239.218 138.067 238.114 138.067C237.65 138.067 237.298 138.035 236.946 137.955ZM249.155 130.707C249.155 128.339 250.819 126.627 253.091 126.627C255.363 126.627 257.027 128.339 257.027 130.707C257.027 133.059 255.363 134.771 253.091 134.771C250.819 134.771 249.155 133.059 249.155 130.707ZM250.275 130.691C250.275 132.515 251.427 133.779 253.091 133.779C254.739 133.779 255.907 132.515 255.907 130.691C255.907 128.899 254.739 127.619 253.091 127.619C251.427 127.619 250.275 128.899 250.275 130.691ZM257.866 126.835H259.05V125.331C259.05 123.587 259.994 122.915 261.194 122.915C261.466 122.915 261.786 122.931 262.042 122.979V123.939H261.37C260.41 123.939 260.154 124.419 260.154 125.331V126.835H263.834V125.331C263.834 123.587 264.794 122.915 265.978 122.915C266.25 122.915 266.57 122.931 266.826 122.979V123.939H266.17C265.194 123.939 264.938 124.419 264.938 125.331V126.835H266.762V127.763H264.938V134.579H263.834V127.763H260.154V134.579H259.05V127.763H257.866V126.835ZM271.275 134.771C269.003 134.771 267.483 133.139 267.483 130.707C267.483 128.291 268.987 126.627 271.195 126.627C273.291 126.627 274.715 128.115 274.715 130.307V130.851H268.555C268.635 132.739 269.627 133.827 271.291 133.827C272.555 133.827 273.371 133.283 273.659 132.259H274.715C274.299 133.891 273.099 134.771 271.275 134.771ZM271.195 127.571C269.739 127.571 268.779 128.531 268.587 130.051H273.611C273.611 128.563 272.651 127.571 271.195 127.571ZM280.528 126.739V127.731H279.92C278.496 127.731 277.584 128.691 277.584 130.163V134.579H276.48V126.835H277.52L277.6 128.035C277.904 127.203 278.72 126.659 279.808 126.659C280.048 126.659 280.256 126.675 280.528 126.739ZM286.977 124.707C286.529 124.707 286.161 124.339 286.161 123.891C286.161 123.443 286.529 123.059 286.977 123.059C287.425 123.059 287.809 123.443 287.809 123.891C287.809 124.339 287.425 124.707 286.977 124.707ZM286.433 134.579V126.835H287.537V134.579H286.433ZM289.184 132.403H290.24C290.24 133.299 290.912 133.859 292 133.859C293.2 133.859 293.904 133.347 293.904 132.515C293.904 131.875 293.584 131.507 292.672 131.283L291.344 130.947C290 130.611 289.344 129.907 289.344 128.851C289.344 127.491 290.48 126.627 292.144 126.627C293.776 126.627 294.832 127.523 294.88 128.963H293.808C293.776 128.067 293.152 127.539 292.112 127.539C291.024 127.539 290.416 128.003 290.416 128.835C290.416 129.427 290.832 129.843 291.68 130.051L293.008 130.387C294.352 130.723 294.96 131.347 294.96 132.467C294.96 133.859 293.776 134.771 292.016 134.771C290.272 134.771 289.184 133.843 289.184 132.403ZM302.991 134.579H301.903V127.763H300.351V126.835H301.903V124.387H302.991V126.835H304.543V127.763H302.991V134.579ZM310.028 126.739V127.731H309.42C307.996 127.731 307.084 128.691 307.084 130.163V134.579H305.98V126.835H307.02L307.1 128.035C307.404 127.203 308.22 126.659 309.308 126.659C309.548 126.659 309.756 126.675 310.028 126.739ZM316.936 126.835H318.04V134.579H317.08L316.936 133.267C316.504 134.163 315.432 134.771 314.216 134.771C312.392 134.771 311.4 133.523 311.4 131.635V126.819H312.52V131.283C312.52 133.123 313.336 133.779 314.568 133.779C316.056 133.779 316.936 132.787 316.936 130.947V126.835ZM321.492 134.579H320.388V122.915H321.492V134.579ZM323.056 137.955V137.043H323.904C324.576 137.043 325.248 136.995 325.632 135.955L325.968 135.043L322.832 126.835H324L326.496 133.587L328.944 126.835H330.08L326.528 136.355C326.08 137.571 325.328 138.067 324.224 138.067C323.76 138.067 323.408 138.035 323.056 137.955ZM5.2 148.739V149.731H4.592C3.168 149.731 2.256 150.691 2.256 152.163V156.579H1.152V148.835H2.192L2.272 150.035C2.576 149.203 3.392 148.659 4.48 148.659C4.72 148.659 4.928 148.675 5.2 148.739ZM9.61875 156.771C7.34675 156.771 5.82675 155.139 5.82675 152.707C5.82675 150.291 7.33075 148.627 9.53875 148.627C11.6348 148.627 13.0588 150.115 13.0588 152.307V152.851H6.89875C6.97875 154.739 7.97075 155.827 9.63475 155.827C10.8988 155.827 11.7148 155.283 12.0028 154.259H13.0588C12.6428 155.891 11.4428 156.771 9.61875 156.771ZM9.53875 149.571C8.08275 149.571 7.12275 150.531 6.93075 152.051H11.9548C11.9548 150.563 10.9948 149.571 9.53875 149.571ZM15.9279 156.579H14.8239V148.835H15.7839L15.9119 149.939C16.2959 149.123 17.1599 148.627 18.2479 148.627C19.4639 148.627 20.3759 149.267 20.7439 150.275C21.0959 149.267 22.0399 148.627 23.2879 148.627C24.9679 148.627 26.0719 149.715 26.0719 151.507V156.579H24.9999V151.731C24.9999 150.403 24.2639 149.619 23.0799 149.619C21.7839 149.619 21.0159 150.595 21.0159 151.795V156.579H19.9279V151.715C19.9279 150.403 19.1759 149.635 18.0079 149.635C16.7119 149.635 15.9279 150.595 15.9279 151.779V156.579ZM30.5166 156.771C28.8686 156.771 27.8926 155.843 27.8926 154.483C27.8926 153.059 28.9806 152.163 30.7886 152.019L33.3486 151.811V151.555C33.3486 150.035 32.4366 149.555 31.3006 149.555C29.9566 149.555 29.1566 150.163 29.1566 151.203H28.1486C28.1486 149.635 29.4286 148.627 31.3326 148.627C33.1246 148.627 34.4366 149.523 34.4366 151.571V156.579H33.5086L33.3646 155.219C32.8846 156.195 31.8286 156.771 30.5166 156.771ZM30.7726 155.875C32.4046 155.875 33.3486 154.739 33.3486 153.059V152.643L31.0606 152.819C29.6046 152.947 29.0126 153.587 29.0126 154.451C29.0126 155.395 29.7166 155.875 30.7726 155.875ZM40.7 148.739V149.731H40.092C38.668 149.731 37.756 150.691 37.756 152.163V156.579H36.652V148.835H37.692L37.772 150.035C38.076 149.203 38.892 148.659 39.98 148.659C40.22 148.659 40.428 148.675 40.7 148.739ZM43.3196 156.579H42.2156V144.915H43.3196V152.835L47.1596 148.835H48.5516L45.5756 151.923L48.5676 156.579H47.2876L44.8236 152.707L43.3196 154.259V156.579ZM51.9854 156.771C50.3374 156.771 49.3614 155.843 49.3614 154.483C49.3614 153.059 50.4494 152.163 52.2574 152.019L54.8174 151.811V151.555C54.8174 150.035 53.9054 149.555 52.7694 149.555C51.4254 149.555 50.6254 150.163 50.6254 151.203H49.6174C49.6174 149.635 50.8974 148.627 52.8014 148.627C54.5934 148.627 55.9054 149.523 55.9054 151.571V156.579H54.9774L54.8334 155.219C54.3534 156.195 53.2974 156.771 51.9854 156.771ZM52.2414 155.875C53.8734 155.875 54.8174 154.739 54.8174 153.059V152.643L52.5294 152.819C51.0734 152.947 50.4814 153.587 50.4814 154.451C50.4814 155.395 51.1854 155.875 52.2414 155.875ZM59.0807 156.579H58.1208V144.915H59.2248V150.339C59.7688 149.203 60.8248 148.627 62.1368 148.627C64.3928 148.627 65.7048 150.387 65.7048 152.723C65.7048 155.043 64.3608 156.771 62.1048 156.771C60.8088 156.771 59.7368 156.195 59.1928 154.995L59.0807 156.579ZM59.2408 152.691C59.2408 154.483 60.2328 155.763 61.9288 155.763C63.6088 155.763 64.5848 154.483 64.5848 152.691C64.5848 150.915 63.6088 149.619 61.9288 149.619C60.2328 149.619 59.2408 150.915 59.2408 152.691ZM68.6165 156.579H67.5125V144.915H68.6165V156.579ZM74.2125 156.771C71.9405 156.771 70.4205 155.139 70.4205 152.707C70.4205 150.291 71.9245 148.627 74.1325 148.627C76.2285 148.627 77.6525 150.115 77.6525 152.307V152.851H71.4925C71.5725 154.739 72.5645 155.827 74.2285 155.827C75.4925 155.827 76.3085 155.283 76.5965 154.259H77.6525C77.2365 155.891 76.0365 156.771 74.2125 156.771ZM74.1325 149.571C72.6765 149.571 71.7165 150.531 71.5245 152.051H76.5485C76.5485 150.563 75.5885 149.571 74.1325 149.571ZM80.8853 156.035C80.8853 157.027 80.1173 157.891 79.1253 158.035V157.443C79.7013 157.347 80.1173 156.931 80.1173 156.483C80.0213 156.547 79.8932 156.595 79.7013 156.595C79.2533 156.595 78.8693 156.275 78.8693 155.731C78.8693 155.171 79.2533 154.771 79.8133 154.771C80.3893 154.771 80.8853 155.235 80.8853 156.035ZM87.0143 152.723C87.0143 150.291 88.5023 148.627 90.7583 148.627C92.5503 148.627 93.8623 149.667 94.1663 151.267H93.0623C92.7743 150.195 91.8463 149.603 90.7743 149.603C89.2063 149.603 88.1023 150.803 88.1023 152.707C88.1023 154.547 89.1263 155.779 90.6943 155.779C91.8463 155.779 92.7743 155.139 93.0783 154.147H94.1983C93.8303 155.731 92.4543 156.771 90.6943 156.771C88.5023 156.771 87.0143 155.155 87.0143 152.723ZM98.0948 156.771C96.4468 156.771 95.4708 155.843 95.4708 154.483C95.4708 153.059 96.5588 152.163 98.3668 152.019L100.927 151.811V151.555C100.927 150.035 100.015 149.555 98.8788 149.555C97.5348 149.555 96.7348 150.163 96.7348 151.203H95.7268C95.7268 149.635 97.0068 148.627 98.9108 148.627C100.703 148.627 102.015 149.523 102.015 151.571V156.579H101.087L100.943 155.219C100.463 156.195 99.4068 156.771 98.0948 156.771ZM98.3508 155.875C99.9828 155.875 100.927 154.739 100.927 153.059V152.643L98.6388 152.819C97.1828 152.947 96.5908 153.587 96.5908 154.451C96.5908 155.395 97.2948 155.875 98.3508 155.875ZM105.866 156.579H104.778V149.763H103.226V148.835H104.778V146.387H105.866V148.835H107.418V149.763H105.866V156.579ZM112.025 156.771C109.753 156.771 108.233 155.139 108.233 152.707C108.233 150.291 109.737 148.627 111.945 148.627C114.041 148.627 115.465 150.115 115.465 152.307V152.851H109.305C109.385 154.739 110.377 155.827 112.041 155.827C113.305 155.827 114.121 155.283 114.409 154.259H115.465C115.049 155.891 113.849 156.771 112.025 156.771ZM111.945 149.571C110.489 149.571 109.529 150.531 109.337 152.051H114.361C114.361 150.563 113.401 149.571 111.945 149.571ZM121.278 148.739V149.731H120.67C119.246 149.731 118.334 150.691 118.334 152.163V156.579H117.23V148.835H118.27L118.35 150.035C118.654 149.203 119.47 148.659 120.558 148.659C120.798 148.659 121.006 148.675 121.278 148.739ZM123.29 146.707C122.842 146.707 122.474 146.339 122.474 145.891C122.474 145.443 122.842 145.059 123.29 145.059C123.738 145.059 124.122 145.443 124.122 145.891C124.122 146.339 123.738 146.707 123.29 146.707ZM122.746 156.579V148.835H123.85V156.579H122.746ZM127.256 156.579H126.152V148.835H127.112L127.272 150.179C127.784 149.187 128.808 148.627 129.928 148.627C132.056 148.627 132.936 149.891 132.936 151.843V156.579H131.832V152.083C131.832 150.275 131.016 149.635 129.736 149.635C128.152 149.635 127.256 150.787 127.256 152.531V156.579ZM134.608 152.483C134.608 150.371 135.968 148.627 138.24 148.627C139.584 148.627 140.608 149.251 141.104 150.387L141.216 148.835H142.176V156.339C142.176 158.643 140.704 160.147 138.432 160.147C136.448 160.147 135.056 159.027 134.752 157.155H135.856C136.096 158.403 137.056 159.139 138.448 159.139C140.032 159.139 141.088 158.067 141.088 156.451V154.611C140.56 155.699 139.488 156.339 138.16 156.339C135.952 156.339 134.608 154.595 134.608 152.483ZM135.712 152.467C135.712 154.051 136.688 155.347 138.32 155.347C140 155.347 140.992 154.131 140.992 152.467C140.992 150.819 140.032 149.603 138.336 149.603C136.672 149.603 135.712 150.899 135.712 152.467ZM150.694 156.579H149.606V149.763H148.054V148.835H149.606V146.387H150.694V148.835H152.246V149.763H150.694V156.579ZM153.061 152.707C153.061 150.339 154.725 148.627 156.997 148.627C159.269 148.627 160.933 150.339 160.933 152.707C160.933 155.059 159.269 156.771 156.997 156.771C154.725 156.771 153.061 155.059 153.061 152.707ZM154.181 152.691C154.181 154.515 155.333 155.779 156.997 155.779C158.645 155.779 159.813 154.515 159.813 152.691C159.813 150.899 158.645 149.619 156.997 149.619C155.333 149.619 154.181 150.899 154.181 152.691ZM169.36 156.771C167.712 156.771 166.736 155.843 166.736 154.483C166.736 153.059 167.824 152.163 169.632 152.019L172.192 151.811V151.555C172.192 150.035 171.28 149.555 170.144 149.555C168.8 149.555 168 150.163 168 151.203H166.992C166.992 149.635 168.272 148.627 170.176 148.627C171.968 148.627 173.28 149.523 173.28 151.571V156.579H172.352L172.208 155.219C171.728 156.195 170.672 156.771 169.36 156.771ZM169.616 155.875C171.248 155.875 172.192 154.739 172.192 153.059V152.643L169.904 152.819C168.448 152.947 167.856 153.587 167.856 154.451C167.856 155.395 168.56 155.875 169.616 155.875ZM182.093 156.579L178.925 148.835H180.109L182.109 153.827C182.317 154.387 182.525 154.915 182.669 155.427C182.813 154.899 183.021 154.387 183.245 153.827L185.277 148.835H186.413L183.197 156.579H182.093ZM189.595 156.771C187.947 156.771 186.971 155.843 186.971 154.483C186.971 153.059 188.059 152.163 189.867 152.019L192.427 151.811V151.555C192.427 150.035 191.515 149.555 190.379 149.555C189.035 149.555 188.235 150.163 188.235 151.203H187.227C187.227 149.635 188.507 148.627 190.411 148.627C192.203 148.627 193.515 149.523 193.515 151.571V156.579H192.587L192.443 155.219C191.963 156.195 190.907 156.771 189.595 156.771ZM189.851 155.875C191.483 155.875 192.427 154.739 192.427 153.059V152.643L190.139 152.819C188.683 152.947 188.091 153.587 188.091 154.451C188.091 155.395 188.795 155.875 189.851 155.875ZM199.778 148.739V149.731H199.17C197.746 149.731 196.834 150.691 196.834 152.163V156.579H195.73V148.835H196.77L196.85 150.035C197.154 149.203 197.97 148.659 199.058 148.659C199.298 148.659 199.506 148.675 199.778 148.739ZM201.79 146.707C201.342 146.707 200.974 146.339 200.974 145.891C200.974 145.443 201.342 145.059 201.79 145.059C202.238 145.059 202.622 145.443 202.622 145.891C202.622 146.339 202.238 146.707 201.79 146.707ZM201.246 156.579V148.835H202.35V156.579H201.246ZM207.9 156.771C205.628 156.771 204.108 155.139 204.108 152.707C204.108 150.291 205.612 148.627 207.82 148.627C209.916 148.627 211.34 150.115 211.34 152.307V152.851H205.18C205.26 154.739 206.252 155.827 207.916 155.827C209.18 155.827 209.996 155.283 210.284 154.259H211.34C210.924 155.891 209.724 156.771 207.9 156.771ZM207.82 149.571C206.364 149.571 205.404 150.531 205.212 152.051H210.236C210.236 150.563 209.276 149.571 207.82 149.571ZM214.803 156.579H213.715V149.763H212.163V148.835H213.715V146.387H214.803V148.835H216.355V149.763H214.803V156.579ZM217.009 159.955V159.043H217.857C218.529 159.043 219.201 158.995 219.585 157.955L219.921 157.043L216.785 148.835H217.953L220.449 155.587L222.897 148.835H224.033L220.481 158.355C220.033 159.571 219.281 160.067 218.177 160.067C217.713 160.067 217.361 160.035 217.009 159.955ZM229.217 152.707C229.217 150.339 230.881 148.627 233.153 148.627C235.425 148.627 237.089 150.339 237.089 152.707C237.089 155.059 235.425 156.771 233.153 156.771C230.881 156.771 229.217 155.059 229.217 152.707ZM230.337 152.691C230.337 154.515 231.489 155.779 233.153 155.779C234.801 155.779 235.969 154.515 235.969 152.691C235.969 150.899 234.801 149.619 233.153 149.619C231.489 149.619 230.337 150.899 230.337 152.691ZM237.929 148.835H239.113V147.331C239.113 145.587 240.073 144.915 241.257 144.915C241.529 144.915 241.849 144.931 242.105 144.979V145.923H241.449C240.473 145.923 240.217 146.419 240.217 147.331V148.835H242.041V149.763H240.217V156.579H239.113V149.763H237.929V148.835ZM249.756 156.579H248.668V149.763H247.116V148.835H248.668V146.387H249.756V148.835H251.308V149.763H249.756V156.579ZM254.845 156.771C253.197 156.771 252.221 155.843 252.221 154.483C252.221 153.059 253.309 152.163 255.117 152.019L257.677 151.811V151.555C257.677 150.035 256.765 149.555 255.629 149.555C254.285 149.555 253.485 150.163 253.485 151.203H252.477C252.477 149.635 253.757 148.627 255.661 148.627C257.453 148.627 258.765 149.523 258.765 151.571V156.579H257.837L257.693 155.219C257.213 156.195 256.157 156.771 254.845 156.771ZM255.101 155.875C256.733 155.875 257.677 154.739 257.677 153.059V152.643L255.389 152.819C253.933 152.947 253.341 153.587 253.341 154.451C253.341 155.395 254.045 155.875 255.101 155.875ZM260.324 154.403H261.38C261.38 155.299 262.052 155.859 263.14 155.859C264.34 155.859 265.044 155.347 265.044 154.515C265.044 153.875 264.724 153.507 263.812 153.283L262.484 152.947C261.14 152.611 260.484 151.907 260.484 150.851C260.484 149.491 261.62 148.627 263.284 148.627C264.916 148.627 265.972 149.523 266.02 150.963H264.948C264.916 150.067 264.292 149.539 263.252 149.539C262.164 149.539 261.556 150.003 261.556 150.835C261.556 151.427 261.972 151.843 262.82 152.051L264.148 152.387C265.492 152.723 266.1 153.347 266.1 154.467C266.1 155.859 264.916 156.771 263.156 156.771C261.412 156.771 260.324 155.843 260.324 154.403ZM269.694 156.579H268.606V149.763H267.054V148.835H268.606V146.387H269.694V148.835H271.246V149.763H269.694V156.579ZM275.853 156.771C273.581 156.771 272.061 155.139 272.061 152.707C272.061 150.291 273.565 148.627 275.773 148.627C277.869 148.627 279.293 150.115 279.293 152.307V152.851H273.133C273.213 154.739 274.205 155.827 275.869 155.827C277.133 155.827 277.949 155.283 278.237 154.259H279.293C278.877 155.891 277.677 156.771 275.853 156.771ZM275.773 149.571C274.317 149.571 273.357 150.531 273.165 152.051H278.189C278.189 150.563 277.229 149.571 275.773 149.571ZM280.402 154.403H281.458C281.458 155.299 282.13 155.859 283.218 155.859C284.418 155.859 285.122 155.347 285.122 154.515C285.122 153.875 284.802 153.507 283.89 153.283L282.562 152.947C281.218 152.611 280.562 151.907 280.562 150.851C280.562 149.491 281.698 148.627 283.362 148.627C284.994 148.627 286.05 149.523 286.098 150.963H285.026C284.994 150.067 284.37 149.539 283.33 149.539C282.242 149.539 281.634 150.003 281.634 150.835C281.634 151.427 282.05 151.843 282.898 152.051L284.226 152.387C285.57 152.723 286.178 153.347 286.178 154.467C286.178 155.859 284.994 156.771 283.234 156.771C281.49 156.771 280.402 155.843 280.402 154.403ZM294.657 156.771C293.009 156.771 292.033 155.843 292.033 154.483C292.033 153.059 293.121 152.163 294.929 152.019L297.489 151.811V151.555C297.489 150.035 296.577 149.555 295.441 149.555C294.097 149.555 293.297 150.163 293.297 151.203H292.289C292.289 149.635 293.569 148.627 295.473 148.627C297.265 148.627 298.577 149.523 298.577 151.571V156.579H297.649L297.505 155.219C297.025 156.195 295.969 156.771 294.657 156.771ZM294.913 155.875C296.545 155.875 297.489 154.739 297.489 153.059V152.643L295.201 152.819C293.745 152.947 293.153 153.587 293.153 154.451C293.153 155.395 293.857 155.875 294.913 155.875ZM301.897 156.579H300.793V148.835H301.753L301.913 150.179C302.425 149.187 303.449 148.627 304.569 148.627C306.697 148.627 307.577 149.891 307.577 151.843V156.579H306.473V152.083C306.473 150.275 305.657 149.635 304.377 149.635C302.793 149.635 301.897 150.787 301.897 152.531V156.579ZM312.817 156.771C310.561 156.771 309.233 155.043 309.233 152.723C309.233 150.387 310.561 148.627 312.865 148.627C314.145 148.627 315.169 149.187 315.713 150.307V144.915H316.817V156.579H315.857L315.745 154.995C315.201 156.195 314.113 156.771 312.817 156.771ZM313.009 155.763C314.705 155.763 315.697 154.483 315.697 152.691C315.697 150.915 314.705 149.619 313.009 149.619C311.329 149.619 310.353 150.915 310.353 152.691C310.353 154.483 311.329 155.763 313.009 155.763ZM0.608 174.707C0.608 172.339 2.272 170.627 4.544 170.627C6.816 170.627 8.48 172.339 8.48 174.707C8.48 177.059 6.816 178.771 4.544 178.771C2.272 178.771 0.608 177.059 0.608 174.707ZM1.728 174.691C1.728 176.515 2.88 177.779 4.544 177.779C6.192 177.779 7.36 176.515 7.36 174.691C7.36 172.899 6.192 171.619 4.544 171.619C2.88 171.619 1.728 172.899 1.728 174.691ZM9.70175 174.723C9.70175 172.291 11.1898 170.627 13.4458 170.627C15.2378 170.627 16.5498 171.667 16.8538 173.267H15.7498C15.4618 172.195 14.5338 171.603 13.4618 171.603C11.8938 171.603 10.7898 172.803 10.7898 174.707C10.7898 176.547 11.8138 177.779 13.3818 177.779C14.5338 177.779 15.4618 177.139 15.7658 176.147H16.8858C16.5178 177.731 15.1418 178.771 13.3818 178.771C11.1898 178.771 9.70175 177.155 9.70175 174.723ZM18.0143 174.723C18.0143 172.291 19.5023 170.627 21.7583 170.627C23.5503 170.627 24.8623 171.667 25.1663 173.267H24.0623C23.7743 172.195 22.8463 171.603 21.7743 171.603C20.2063 171.603 19.1023 172.803 19.1023 174.707C19.1023 176.547 20.1263 177.779 21.6943 177.779C22.8463 177.779 23.7743 177.139 24.0783 176.147H25.1983C24.8303 177.731 23.4543 178.771 21.6943 178.771C19.5023 178.771 18.0143 177.155 18.0143 174.723ZM29.0948 178.771C27.4468 178.771 26.4708 177.843 26.4708 176.483C26.4708 175.059 27.5588 174.163 29.3668 174.019L31.9268 173.811V173.555C31.9268 172.035 31.0148 171.555 29.8788 171.555C28.5348 171.555 27.7348 172.163 27.7348 173.203H26.7268C26.7268 171.635 28.0068 170.627 29.9108 170.627C31.7028 170.627 33.0148 171.523 33.0148 173.571V178.579H32.0868L31.9428 177.219C31.4628 178.195 30.4068 178.771 29.0948 178.771ZM29.3508 177.875C30.9828 177.875 31.9268 176.739 31.9268 175.059V174.643L29.6388 174.819C28.1828 174.947 27.5908 175.587 27.5908 176.451C27.5908 177.395 28.2948 177.875 29.3508 177.875ZM34.5741 176.403H35.6301C35.6301 177.299 36.3021 177.859 37.3901 177.859C38.5901 177.859 39.2941 177.347 39.2941 176.515C39.2941 175.875 38.9741 175.507 38.0621 175.283L36.7341 174.947C35.3901 174.611 34.7341 173.907 34.7341 172.851C34.7341 171.491 35.8701 170.627 37.5341 170.627C39.1661 170.627 40.2221 171.523 40.2701 172.963H39.1981C39.1661 172.067 38.5421 171.539 37.5021 171.539C36.4141 171.539 35.8061 172.003 35.8061 172.835C35.8061 173.427 36.2221 173.843 37.0701 174.051L38.3981 174.387C39.7421 174.723 40.3501 175.347 40.3501 176.467C40.3501 177.859 39.1661 178.771 37.4061 178.771C35.6621 178.771 34.5741 177.843 34.5741 176.403ZM42.7116 168.707C42.2636 168.707 41.8956 168.339 41.8956 167.891C41.8956 167.443 42.2636 167.059 42.7116 167.059C43.1596 167.059 43.5436 167.443 43.5436 167.891C43.5436 168.339 43.1596 168.707 42.7116 168.707ZM42.1676 178.579V170.835H43.2716V178.579H42.1676ZM45.0299 174.707C45.0299 172.339 46.6939 170.627 48.9659 170.627C51.2379 170.627 52.9019 172.339 52.9019 174.707C52.9019 177.059 51.2379 178.771 48.9659 178.771C46.6939 178.771 45.0299 177.059 45.0299 174.707ZM46.1499 174.691C46.1499 176.515 47.3019 177.779 48.9659 177.779C50.6139 177.779 51.7819 176.515 51.7819 174.691C51.7819 172.899 50.6139 171.619 48.9659 171.619C47.3019 171.619 46.1499 172.899 46.1499 174.691ZM55.7716 178.579H54.6676V170.835H55.6276L55.7876 172.179C56.2996 171.187 57.3236 170.627 58.4436 170.627C60.5716 170.627 61.4516 171.891 61.4516 173.843V178.579H60.3476V174.083C60.3476 172.275 59.5316 171.635 58.2516 171.635C56.6676 171.635 55.7716 172.787 55.7716 174.531V178.579ZM62.9023 176.403H63.9583C63.9583 177.299 64.6303 177.859 65.7183 177.859C66.9183 177.859 67.6223 177.347 67.6223 176.515C67.6223 175.875 67.3023 175.507 66.3903 175.283L65.0623 174.947C63.7183 174.611 63.0623 173.907 63.0623 172.851C63.0623 171.491 64.1983 170.627 65.8623 170.627C67.4943 170.627 68.5503 171.523 68.5983 172.963H67.5263C67.4943 172.067 66.8703 171.539 65.8303 171.539C64.7423 171.539 64.1343 172.003 64.1343 172.835C64.1343 173.427 64.5503 173.843 65.3983 174.051L66.7263 174.387C68.0703 174.723 68.6783 175.347 68.6783 176.467C68.6783 177.859 67.4943 178.771 65.7343 178.771C63.9903 178.771 62.9023 177.843 62.9023 176.403ZM71.3148 178.755C70.7708 178.755 70.3068 178.307 70.3068 177.779C70.3068 177.235 70.7708 176.771 71.3148 176.771C71.8588 176.771 72.3228 177.235 72.3228 177.779C72.3228 178.307 71.8588 178.755 71.3148 178.755ZM75.0065 168.147C75.0065 169.155 74.2705 170.003 73.2785 170.147V169.555C73.8385 169.443 74.2545 169.043 74.2545 168.595C74.1585 168.659 74.0145 168.691 73.8225 168.691C73.4065 168.691 73.0385 168.387 73.0385 167.843C73.0385 167.299 73.4225 166.899 73.9825 166.899C74.5265 166.899 75.0065 167.363 75.0065 168.147ZM77.5985 168.147C77.5985 169.155 76.8465 170.003 75.8705 170.147V169.555C76.4305 169.443 76.8465 169.043 76.8465 168.579C76.7505 168.643 76.6225 168.691 76.4145 168.691C75.9985 168.691 75.6145 168.387 75.6145 167.843C75.6145 167.299 75.9985 166.899 76.5585 166.899C77.1185 166.899 77.5985 167.363 77.5985 168.147Z" fill="black" fill-opacity="0.6"/>
</svg>
